<?xml version="1.0" encoding="UTF-8"?>
<svg version="1.1" xmlns="http://www.w3.org/2000/svg" width="204" height="192">
<path d="M0 0 C67.32 0 134.64 0 204 0 C204 63.36 204 126.72 204 192 C136.68 192 69.36 192 0 192 C0 128.64 0 65.28 0 0 Z " fill="#F8F2EB" transform="translate(0,0)"/>
<path d="M0 0 C67.32 0 134.64 0 204 0 C204 19.14 204 38.28 204 58 C202.02 55.525 202.02 55.525 200 53 C196.75677884 50.24817598 194.18698731 49.16956962 189.9375 48.5625 C183.66157646 49.25982484 178.37783675 52.17259502 174.28515625 57.0390625 C172.1855235 60.28892884 170.81726639 63.20855801 170 67 C169.14728516 66.82210937 169.14728516 66.82210937 168.27734375 66.640625 C164.1214082 65.94681272 160.94637391 65.57407632 157.125 67.5625 C152.46335468 71.19858335 151.07032427 74.65595285 150.3125 80.375 C150.1578125 82.169375 150.1578125 82.169375 150 84 C148.71802734 83.87431641 148.71802734 83.87431641 147.41015625 83.74609375 C145.75306641 83.59333984 145.75306641 83.59333984 144.0625 83.4375 C142.96035156 83.33308594 141.85820312 83.22867188 140.72265625 83.12109375 C139.82417969 83.08113281 138.92570313 83.04117188 138 83 C137.67 83.33 137.34 83.66 137 84 C135.00041636 84.04080783 132.99954746 84.04254356 131 84 C131 83.34 131 82.68 131 82 C130.28714844 82.15597656 129.57429687 82.31195313 128.83984375 82.47265625 C123.20415538 83.61799803 118.61358166 84.40339542 113 83 C111.515 82.01 111.515 82.01 110 81 C109.88392357 78.37191067 109.916819 75.9262575 110.0625 73.3125 C110.22550307 66.99035929 110.24283033 62.89557346 106 58 C102.93147229 55.11721852 100.24428585 53.29754662 96.125 52.3125 C91.30220534 53.37351483 87.66843125 55.72241096 84 59 C82.60610876 61.14627559 82.60610876 61.14627559 81.5 63.375 C80.3671875 65.43359375 80.3671875 65.43359375 79 67 C76.60998885 67.54979344 74.69602565 67.44501346 72.26171875 67.1875 C69.7539262 66.85301421 69.7539262 66.85301421 66.4375 67.9375 C62.38297742 68.01121859 61.94330227 67.44669663 59.0625 64.8125 C58.39605469 64.16667969 57.72960938 63.52085938 57.04296875 62.85546875 C52.49086479 58.72114871 47.11487853 56.47959832 41 56 C39.86691406 55.90525391 39.86691406 55.90525391 38.7109375 55.80859375 C23.46537283 55.11152516 11.8374478 61.12191415 0 70 C0 46.9 0 23.8 0 0 Z " fill="#FEFEFE" transform="translate(0,0)"/>
<path d="M0 0 C0.66 0 1.32 0 2 0 C2.3403125 1.0828125 2.3403125 1.0828125 2.6875 2.1875 C5.29179852 7.76813969 9.42318404 10.68846939 15 13 C18.65800032 13.35996043 18.65800032 13.35996043 22.375 13.1875 C24.24285156 13.14689453 24.24285156 13.14689453 26.1484375 13.10546875 C27.08945312 13.07066406 28.03046875 13.03585938 29 13 C29 12.34 29 11.68 29 11 C31.54093855 10.35118552 34.08268273 9.70587101 36.625 9.0625 C37.33785156 8.88009766 38.05070312 8.69769531 38.78515625 8.50976562 C47.01965369 6.4322548 47.01965369 6.4322548 51 6 C51.598125 6.474375 52.19625 6.94875 52.8125 7.4375 C57.14081079 10.52915056 63.02496958 9.18269681 68.0625 8.4375 C71.22488509 8.08612388 73.15944182 8.0748352 76.1875 8.5625 C80.11917881 9.01367626 81.50966993 8.55125781 85 7 C86.875 7.3125 86.875 7.3125 89 8 C94.61880689 9.40470172 97.50032695 8.71217469 102.3984375 6.0078125 C103.97648524 5.09747257 103.97648524 5.09747257 105 4 C109.5209204 3.73917767 112.96470233 3.87025957 117 6 C117.41121094 6.51199951 117.82242188 7.02399902 118.24609375 7.55151367 C120.85867027 9.70914403 122.96775514 9.37204085 126.3125 9.36328125 C127.55257812 9.36263672 128.79265625 9.36199219 130.0703125 9.36132812 C131.36710938 9.34521484 132.66390625 9.32910156 134 9.3125 C135.29679688 9.31572266 136.59359375 9.31894531 137.9296875 9.32226562 C144.85131456 9.57725459 144.85131456 9.57725459 151 7 C153.84120234 7.35515029 156.28047752 8.09349251 159 9 C164.329794 9.1776598 168.60069568 8.77132919 174 8 C174 27.47 174 46.94 174 67 C106.68 67 39.36 67 -30 67 C-30 49.51 -30 32.02 -30 14 C-27.36 14.99 -24.72 15.98 -22 17 C-16.0084844 18.04200271 -10.9233042 15.22411072 -6 12 C-4.00682357 9.38392279 -4.00682357 9.38392279 -3 7 C-2.34 7 -1.68 7 -1 7 C-0.67 4.69 -0.34 2.38 0 0 Z " fill="#FEFEFD" transform="translate(30,125)"/>
<path d="M0 0 C1 1 1 1 1.375 4.75 C1.30933693 8.08687784 1.04827691 8.92992062 -0.9375 11.8125 C-6.38891563 15.70636831 -11.32979135 17 -18 17 C-18 13.04 -18 9.08 -18 5 C-20.31 5.66 -22.62 6.32 -25 7 C-25.66 9.64 -26.32 12.28 -27 15 C-29.31 15 -31.62 15 -34 15 C-34 16.98 -34 18.96 -34 21 C-31.525 21.99 -31.525 21.99 -29 23 C-29 25.97 -29 28.94 -29 32 C-26.36 32 -23.72 32 -21 32 C-21 29.69 -21 27.38 -21 25 C-18.625 24.875 -18.625 24.875 -16 25 C-13.4345406 27.5654594 -13.45953913 29.47686668 -13 33 C-10.03 33 -7.06 33 -4 33 C-3.731875 33.825 -3.46375 34.65 -3.1875 35.5 C-1.87475078 39.36915561 -0.44898716 43.17994294 1 47 C5.12973628 46.43260132 5.12973628 46.43260132 9 45 C9.65374742 42.45293768 9.65374742 42.45293768 10.0625 39.5 C10.90534351 34.09465649 10.90534351 34.09465649 12 33 C15.00331018 32.85806663 17.99217134 32.95763622 21 33 C20.67 36.96 20.34 40.92 20 45 C25.97286684 42.75539201 25.97286684 42.75539201 31 39 C31.80946422 35.89802603 31.80946422 35.89802603 32 33 C34.64 33 37.28 33 40 33 C40.99 37.95 40.99 37.95 42 43 C47.90890028 42.56855444 47.90890028 42.56855444 53 40 C53.81870185 36.43793339 53.81870185 36.43793339 54 33 C56.97 33 59.94 33 63 33 C63.495 34.98 63.495 34.98 64 37 C64.66 35.68 65.32 34.36 66 33 C70.29 33 74.58 33 79 33 C79.33 33.99 79.66 34.98 80 36 C80.33 35.01 80.66 34.02 81 33 C84.70683859 32.71679501 88.30445631 32.53255772 92 33 C93.8125 35.5 93.8125 35.5 95 38 C98.12635209 38.41746608 98.12635209 38.41746608 101 38 C101.66 36.35 102.32 34.7 103 33 C105.97 33 108.94 33 112 33 C112 36.63 112 40.26 112 44 C116.88214887 43.35355339 116.88214887 43.35355339 120 41 C120.57748803 39.03638136 120.57748803 39.03638136 120.6875 36.875 C120.8421875 34.956875 120.8421875 34.956875 121 33 C122.25296875 32.98582031 123.5059375 32.97164062 124.796875 32.95703125 C126.44795328 32.91012562 128.09899382 32.86187825 129.75 32.8125 C130.575 32.80669922 131.4 32.80089844 132.25 32.79492188 C137.46261931 32.66426414 137.46261931 32.66426414 141.453125 29.44921875 C142.21882813 28.23685547 142.21882813 28.23685547 143 27 C143.66 27 144.32 27 145 27 C145 28.32 145 29.64 145 31 C144.01 31.495 144.01 31.495 143 32 C147.04170942 32.42394437 147.04170942 32.42394437 151 32 C153.49540371 29.13384514 153.49540371 29.13384514 155 26 C155.33 26 155.66 26 156 26 C156 36.56 156 47.12 156 58 C148.14814431 60.24338734 143.59119514 61.07751154 136 58 C132.67916228 58.26792471 132.67916228 58.26792471 130 60 C125.40290636 60.31052762 120.79378597 60.27848016 116.1875 60.3125 C114.24133789 60.35600586 114.24133789 60.35600586 112.25585938 60.40039062 C111.00998047 60.40876953 109.76410156 60.41714844 108.48046875 60.42578125 C107.33473389 60.44036377 106.18899902 60.45494629 105.00854492 60.4699707 C101.37186071 59.90187713 100.33082337 58.75654757 98 56 C94.46757505 54.53830692 90.76442652 54.67548047 87 55 C84.98079663 56.30406884 82.98075027 57.63823419 81 59 C76.35318953 60.12164391 74.13214012 60.20380806 70 58 C67.64934822 58.28566879 67.64934822 58.28566879 65 59 C60.66770879 59.71021167 57.03419691 60.12323963 52.6875 59.5 C49.06611326 58.73305735 49.06611326 58.73305735 46 60 C43.87890625 60.203125 43.87890625 60.203125 41.5625 60.25 C40.80066406 60.27578125 40.03882812 60.3015625 39.25390625 60.328125 C37 60 37 60 35.06640625 58.40625 C33.04361404 56.69738313 33.04361404 56.69738313 30.3359375 57.328125 C29.35882813 57.63234375 28.38171875 57.9365625 27.375 58.25 C21.89200593 59.81945653 16.68147936 60.63548031 11 61 C11 61.66 11 62.32 11 63 C6.32269335 65.33865333 -0.47390139 64.72115376 -5.39453125 63.31640625 C-10.13050253 61.1340562 -13.11680362 58.32479457 -16 54 C-16 52.68 -16 51.36 -16 50 C-16.66 50 -17.32 50 -18 50 C-18.33 52.31 -18.66 54.62 -19 57 C-19.66 57 -20.32 57 -21 57 C-21.309375 58.11375 -21.309375 58.11375 -21.625 59.25 C-23.76753716 63.53507432 -27.26690637 65.01635227 -31.3125 67.3125 C-36.25679188 68.57731885 -40.94032792 67.862833 -45.61206055 65.90576172 C-48 64 -48 64 -48.56762695 60.8137207 C-48.54144287 59.53070068 -48.51525879 58.24768066 -48.48828125 56.92578125 C-48.48120651 56.2419487 -48.47413177 55.55811615 -48.46684265 54.8535614 C-48.43888004 52.67208841 -48.37615064 50.49319506 -48.3125 48.3125 C-48.28741897 46.8327194 -48.26460544 45.35289851 -48.24414062 43.87304688 C-48.18905135 40.24786137 -48.10277108 36.62418247 -48 33 C-47.01 33 -46.02 33 -45 33 C-45.0825 32.113125 -45.165 31.22625 -45.25 30.3125 C-45.21223971 21.02346875 -41.51263107 11.58783467 -35 5 C-25.06765568 -4.19739284 -11.85944311 -7.71018625 0 0 Z " fill="#F6ECEF" transform="translate(48,75)"/>
<path d="M0 0 C2.97 0 5.94 0 9 0 C9.268125 0.825 9.53625 1.65 9.8125 2.5 C11.12524922 6.36915561 12.55101284 10.17994294 14 14 C18.12973628 13.43260132 18.12973628 13.43260132 22 12 C22.65374742 9.45293768 22.65374742 9.45293768 23.0625 6.5 C23.90534351 1.09465649 23.90534351 1.09465649 25 0 C28.00331018 -0.14193337 30.99217134 -0.04236378 34 0 C33.67 3.96 33.34 7.92 33 12 C38.97286684 9.75539201 38.97286684 9.75539201 44 6 C44.80946422 2.89802603 44.80946422 2.89802603 45 0 C47.64 0 50.28 0 53 0 C53.66 3.3 54.32 6.6 55 10 C60.90890028 9.56855444 60.90890028 9.56855444 66 7 C66.81870185 3.43793339 66.81870185 3.43793339 67 0 C69.97 0 72.94 0 76 0 C76.495 1.98 76.495 1.98 77 4 C77.66 2.68 78.32 1.36 79 0 C83.29 0 87.58 0 92 0 C92.495 1.485 92.495 1.485 93 3 C93.33 2.01 93.66 1.02 94 0 C97.70683859 -0.28320499 101.30445631 -0.46744228 105 0 C106.8125 2.5 106.8125 2.5 108 5 C111.12635209 5.41746608 111.12635209 5.41746608 114 5 C114.66 3.35 115.32 1.7 116 0 C118.97 0 121.94 0 125 0 C125 3.63 125 7.26 125 11 C129.88214887 10.35355339 129.88214887 10.35355339 133 8 C133.33 5.36 133.66 2.72 134 0 C139.94 0 145.88 0 152 0 C145.00126662 14.48575047 145.00126662 14.48575047 141 19 C138.3125 19.5625 138.3125 19.5625 136 19 C135.01 18.01 135.01 18.01 134 17 C131.65324594 17.32369022 129.78786871 18.09490084 127.625 19.0625 C124.48507556 20.18390159 122.31131369 20.4227209 119 20 C116.625 18.125 116.625 18.125 115 16 C115 15.34 115 14.68 115 14 C114.32453125 14.03480469 113.6490625 14.06960937 112.953125 14.10546875 C112.06109375 14.13253906 111.1690625 14.15960938 110.25 14.1875 C109.36828125 14.22230469 108.4865625 14.25710937 107.578125 14.29296875 C104.47880755 13.94077359 103.15551344 13.24112963 101 11 C101 9.68 101 8.36 101 7 C100.34 7 99.68 7 99 7 C98.773125 7.86625 98.54625 8.7325 98.3125 9.625 C96.71838715 13.72414732 95.10713736 15.89286264 92 19 C90.68 19 89.36 19 88 19 C86.40587716 15.81175432 86.89825265 12.37103338 86.9375 8.875 C86.94201172 8.12089844 86.94652344 7.36679688 86.95117188 6.58984375 C86.96296501 4.72652873 86.98090058 2.86325445 87 1 C86.34 1 85.68 1 85 1 C84.85304688 1.6290625 84.70609375 2.258125 84.5546875 2.90625 C82.93648456 9.08146122 80.91639865 14.68488752 76 19 C72.625 19.5 72.625 19.5 70 19 C69.505 17.02 69.505 17.02 69 15 C67.865625 15.66 66.73125 16.32 65.5625 17 C61.06656362 19.22405363 56.95698243 20.14464671 52 19 C49.0625 16.5 49.0625 16.5 47 14 C44.3276883 14 42.95569991 15.07010976 40.625 16.375 C35.68820423 18.92232921 31.15154107 19.88418175 25.6640625 20.54296875 C23.03693813 20.99366311 21.35582886 21.81973444 19 23 C15.57882837 23.57853959 12.41793196 23.62144217 9 23 C3.22163316 18.08224099 1.15894605 11.38611142 0.3125 4 C0.1578125 2.02 0.1578125 2.02 0 0 Z " fill="#F82E96" transform="translate(35,108)"/>
<path d="M0 0 C3.13227247 0.76396889 4.70788896 2.14894029 6.6015625 4.7421875 C8.49260305 8.44739703 8.43147592 11.60524743 7.5625 15.625 C5.81537544 20.09602769 3.77396122 24.36662081 1.5625 28.625 C2.79226562 28.59019531 2.79226562 28.59019531 4.046875 28.5546875 C5.66335937 28.52761719 5.66335937 28.52761719 7.3125 28.5 C8.37984375 28.47679688 9.4471875 28.45359375 10.546875 28.4296875 C13.48720106 28.62012313 15.08611878 29.09829896 17.5625 30.625 C17.7986959 37.02853322 17.385821 42.47129161 15.5625 48.625 C12.5925 48.625 9.6225 48.625 6.5625 48.625 C6.5625 50.935 6.5625 53.245 6.5625 55.625 C-1.17209716 60.47808057 -1.17209716 60.47808057 -5.4375 59.625 C-8.11677341 55.60608988 -7.59351248 53.38338077 -7.4375 48.625 C-10.0775 48.625 -12.7175 48.625 -15.4375 48.625 C-15.19 49.924375 -15.19 49.924375 -14.9375 51.25 C-15.52302464 55.20229134 -16.14498771 55.63360155 -19.1875 58 C-22.42103932 60.33533395 -23.24314858 60.625 -27.4375 60.625 C-27.1075 56.665 -26.7775 52.705 -26.4375 48.625 C-29.4075 48.625 -32.3775 48.625 -35.4375 48.625 C-35.01062017 46.72674715 -34.57050518 44.83146817 -34.125 42.9375 C-33.88136719 41.88175781 -33.63773438 40.82601562 -33.38671875 39.73828125 C-32.43097342 36.60359388 -31.36679692 34.26885134 -29.4375 31.625 C-28.4475 31.295 -27.4575 30.965 -26.4375 30.625 C-25.97730469 30.11324219 -25.51710938 29.60148437 -25.04296875 29.07421875 C-22.88550101 27.12672354 -21.60541604 27.31335148 -18.75 27.4375 C-17.94175781 27.46457031 -17.13351563 27.49164063 -16.30078125 27.51953125 C-15.68589844 27.55433594 -15.07101563 27.58914062 -14.4375 27.625 C-14.19966797 26.39136719 -14.19966797 26.39136719 -13.95703125 25.1328125 C-9.19697941 2.35819985 -9.19697941 2.35819985 0 0 Z " fill="#FEAE0B" transform="translate(95.4375,59.375)"/>
<path d="M0 0 C1 1 1 1 1.375 4.75 C1.30933693 8.08687784 1.04827691 8.92992062 -0.9375 11.8125 C-6.38891563 15.70636831 -11.32979135 17 -18 17 C-18 13.04 -18 9.08 -18 5 C-20.31 5.66 -22.62 6.32 -25 7 C-25.66 9.64 -26.32 12.28 -27 15 C-29.31 15 -31.62 15 -34 15 C-34 16.98 -34 18.96 -34 21 C-31.525 21.99 -31.525 21.99 -29 23 C-29 25.97 -29 28.94 -29 32 C-26.36 32 -23.72 32 -21 32 C-23.54817987 51.66595289 -23.54817987 51.66595289 -31 58 C-34.34737107 60.23158072 -35.8635808 60.09699239 -39.76953125 59.77734375 C-43.26436132 58.55935569 -45.89916746 57.04044541 -48 54 C-48.73140057 50.36761336 -48.56810427 46.87381093 -48.375 43.1875 C-48.33439453 41.71893555 -48.33439453 41.71893555 -48.29296875 40.22070312 C-48.22245648 37.81153379 -48.12398568 35.40691181 -48 33 C-47.01 33 -46.02 33 -45 33 C-45.0825 32.113125 -45.165 31.22625 -45.25 30.3125 C-45.21223971 21.02346875 -41.51263107 11.58783467 -35 5 C-25.06765568 -4.19739284 -11.85944311 -7.71018625 0 0 Z " fill="#F9F4EF" transform="translate(48,75)"/>
<path d="M0 0 C4.03705183 2.76097223 7.10765835 5.41573573 9 10 C9.63995403 15.65292722 8.44575698 19.54078508 5 24 C-0.18252585 29.06735861 -5.82527674 31.91292072 -13 33 C-12.21625 33.556875 -11.4325 34.11375 -10.625 34.6875 C-7.91295142 37.07668565 -7.03866457 38.60073413 -6 42 C-8.97 42 -11.94 42 -15 42 C-15.391875 40.865625 -15.78375 39.73125 -16.1875 38.5625 C-17.58610882 34.79660949 -17.58610882 34.79660949 -20.6875 34.0625 C-21.450625 34.041875 -22.21375 34.02125 -23 34 C-23 36.31 -23 38.62 -23 41 C-25.64 41 -28.28 41 -31 41 C-31 38.03 -31 35.06 -31 32 C-32.65 31.34 -34.3 30.68 -36 30 C-36 28.02 -36 26.04 -36 24 C-33.69 24 -31.38 24 -29 24 C-29.061875 23.0925 -29.12375 22.185 -29.1875 21.25 C-29 18 -29 18 -27.875 15.625 C-26 14 -26 14 -20 14 C-20 17.96 -20 21.92 -20 26 C-18.123125 25.566875 -16.24625 25.13375 -14.3125 24.6875 C-12.72888672 24.32205078 -12.72888672 24.32205078 -11.11328125 23.94921875 C-7.99728511 22.99917225 -5.66117427 21.86521944 -3 20 C-1.85647084 17.71294169 -1.89665561 16.40735238 -1.9375 13.875 C-1.958125 12.59625 -1.97875 11.3175 -2 10 C-8.96088761 5.87502956 -14.38319168 4.87291243 -22.35546875 6.47265625 C-30.9235972 8.93544016 -37.07488956 13.9703723 -41.75 21.50390625 C-44.94756018 27.88903424 -46.21676688 34.95090189 -47 42 C-47.99 42 -48.98 42 -50 42 C-50.17565094 38.00056323 -50.28130466 34.00212936 -50.375 30 C-50.42527344 28.87464844 -50.47554687 27.74929687 -50.52734375 26.58984375 C-50.64523633 19.86996676 -50.1465505 15.69324834 -45.60449219 10.59179688 C-45.07500977 10.06650391 -44.54552734 9.54121094 -44 9 C-43.23558594 8.21109375 -42.47117187 7.4221875 -41.68359375 6.609375 C-30.29667732 -2.81701147 -13.75235672 -7.08694245 0 0 Z " fill="#FEB00B" transform="translate(50,66)"/>
<path d="M0 0 C2.98874919 2.59549272 3.92748235 4.13088692 4.2578125 8.08984375 C3.94571845 12.82327017 2.87870735 16.97756083 1.5 21.5 C1.23880371 22.36915039 0.97760742 23.23830078 0.70849609 24.13378906 C-1.88110134 32.33092451 -5.60627709 39.63995655 -10 47 C-7.31576849 44.36317213 -4.77372876 41.65812891 -2.3125 38.8125 C1.84550292 34.01343453 1.84550292 34.01343453 4.875 33.75 C8 34 8 34 9.875 35 C11.72112622 38.28200216 11.67578853 41.40454256 11 45 C9.84736854 47.96231853 8.56427986 50.08557189 6 52 C2.91213042 52.57316643 0.10033369 52.425536 -3 52 C-2.67 51.34 -2.34 50.68 -2 50 C-1.34 50 -0.68 50 0 50 C0 48.68 0 47.36 0 46 C-0.804375 46.804375 -1.60875 47.60875 -2.4375 48.4375 C-6 52 -6 52 -9.81640625 52.09765625 C-11.39846682 52.09098089 -12.98051159 52.07901875 -14.5625 52.0625 C-15.36880859 52.05798828 -16.17511719 52.05347656 -17.00585938 52.04882812 C-19.00393756 52.03700518 -21.00197783 52.01906914 -23 52 C-23.14643081 45.42392564 -22.64189482 39.24248232 -21.625 32.75 C-21.49867188 31.87859375 -21.37234375 31.0071875 -21.2421875 30.109375 C-20.58428479 25.79353325 -19.78590617 22.01277682 -18 18 C-17.5978125 16.081875 -17.5978125 16.081875 -17.1875 14.125 C-15.84462677 8.57515675 -13.00765793 4.59583066 -8.5625 1.0625 C-5.37779986 -0.25798543 -3.41172085 -0.58071844 0 0 Z " fill="#FFB009" transform="translate(193,56)"/>
<path d="M0 0 C3.91259565 2.43450396 6.33867368 4.32852105 7.8125 8.75 C7.8958804 10.88794525 7.91983747 13.02842009 7.91015625 15.16796875 C7.90693359 16.42158203 7.90371094 17.67519531 7.90039062 18.96679688 C7.89201172 20.27712891 7.88363281 21.58746094 7.875 22.9375 C7.86998317 24.27278481 7.86542059 25.60807141 7.86132812 26.94335938 C7.84952695 30.21228473 7.83306297 33.48111991 7.8125 36.75 C5.5025 36.42 3.1925 36.09 0.8125 35.75 C1.0290625 34.89019531 1.245625 34.03039062 1.46875 33.14453125 C4.84847347 18.94470466 4.84847347 18.94470466 2.8125 4.75 C-1.21420765 2.87711272 -4.78208905 2.29110303 -9.1875 2.75 C-13.84817707 4.55720131 -16.90438083 6.99786381 -20.1875 10.75 C-20.5175 11.74 -20.8475 12.73 -21.1875 13.75 C-21.8475 13.75 -22.5075 13.75 -23.1875 13.75 C-23.5175 16.06 -23.8475 18.37 -24.1875 20.75 C-24.82816406 20.71519531 -25.46882812 20.68039063 -26.12890625 20.64453125 C-32.00108478 20.46075219 -36.03599625 20.85227914 -41.1875 23.75 C-43.67320024 27.47855036 -43.49094304 30.44110878 -43.1875 34.75 C-42.77018982 37.10529281 -42.77018982 37.10529281 -42.1875 38.75 C-43.1775 39.41 -44.1675 40.07 -45.1875 40.75 C-45.826875 40.09 -46.46625 39.43 -47.125 38.75 C-51.1576604 36.11642586 -54.48016614 36.02579479 -59.1875 36.75 C-60.52227321 37.41377911 -61.85587459 38.07992837 -63.1875 38.75 C-64.52083333 38.08333333 -65.85416667 37.41666667 -67.1875 36.75 C-70.85712244 36.34057931 -74.08808817 36.15317644 -77.375 37.9375 C-77.973125 38.205625 -78.57125 38.47375 -79.1875 38.75 C-81.5 37.5 -81.5 37.5 -84.1875 35.75 C-86.50441454 35.02833809 -88.83598923 34.34940471 -91.1875 33.75 C-90.8575 32.63625 -90.5275 31.5225 -90.1875 30.375 C-88.63433198 24.02726984 -87.95998438 18.20503124 -90.9375 12.25 C-94.392967 8.41059222 -95.95307626 7.88715819 -101.125 7.3125 C-104.35182669 7.42006089 -105.12512107 7.70502914 -107.875 9.6875 C-110.75537394 13.50204927 -113.01243818 17.50168777 -115.1875 21.75 C-116.29931641 21.51023437 -116.29931641 21.51023437 -117.43359375 21.265625 C-121.98560799 20.41333297 -126.48920284 19.67739127 -130.5625 22.25 C-131.09875 22.745 -131.635 23.24 -132.1875 23.75 C-132.8475 23.75 -133.5075 23.75 -134.1875 23.75 C-135.12874572 22.30451551 -136.06861823 20.85810982 -137 19.40625 C-140.70756404 14.23517383 -146.0008826 10.94711504 -152.1875 9.75 C-166.20830663 8.43870154 -178.14791821 10.34718739 -189.4375 19.4375 C-191.76208768 21.48354981 -193.99835742 23.56085742 -196.1875 25.75 C-196.45785988 22.82610802 -196.59957413 21.29329326 -194.7890625 18.90625 C-183.41053396 9.37167273 -170.13195584 4.47566656 -155.1875 5.75 C-147.64302801 6.62856143 -140.30851299 10.46044069 -135.08984375 15.9609375 C-134.46207031 16.55132812 -133.83429688 17.14171875 -133.1875 17.75 C-129.877248 17.55222151 -129.877248 17.55222151 -126.1875 16.75 C-124.66585202 16.90905728 -123.14501086 17.07599202 -121.625 17.25 C-119.32050181 17.39519045 -119.32050181 17.39519045 -117.1875 16.75 C-115.33734517 14.6730233 -114.08969857 12.50050248 -112.71484375 10.0859375 C-109.71120111 5.49213111 -105.44317614 3.26692578 -100.1875 2.0625 C-94.5141758 3.3626368 -89.94826717 7.15041629 -86.6875 11.9375 C-83.63070364 17.98376239 -84.7715433 25.37243891 -86.1875 31.75 C-81.3448476 33.75792904 -78.30035345 33.63152646 -73.1875 32.75 C-70.51334411 32.66070481 -67.86417142 32.70304085 -65.1875 32.75 C-65.1875 33.41 -65.1875 34.07 -65.1875 34.75 C-64.218125 34.399375 -63.24875 34.04875 -62.25 33.6875 C-56.81157487 32.11467644 -51.48380758 32.98456414 -46.1875 34.75 C-46.27 33.574375 -46.3525 32.39875 -46.4375 31.1875 C-46.41273002 26.52248736 -45.24354526 23.28999377 -42.1875 19.75 C-39.03056216 17.15871204 -36.0366011 15.8479732 -31.9375 15.375 C-29.1875 15.75 -29.1875 15.75 -26.1875 17.75 C-26.14625 16.925 -26.105 16.1 -26.0625 15.25 C-24.41928508 8.67714031 -20.51101665 4.22630577 -14.75 0.75 C-9.48551456 -1.86457666 -5.53736159 -2.17151435 0 0 Z " fill="#654838" transform="translate(196.1875,49.25)"/>
<path d="M0 0 C0.66 0 1.32 0 2 0 C2.34611328 1.08667969 2.34611328 1.08667969 2.69921875 2.1953125 C3.18841797 3.64550781 3.18841797 3.64550781 3.6875 5.125 C4.00074219 6.07632813 4.31398437 7.02765625 4.63671875 8.0078125 C6.33513379 11.73556585 7.99114487 14.19666776 11 17 C14.00436462 17.51241955 16.10433912 17.67353098 19.0625 17.5 C19.76955078 17.4896875 20.47660156 17.479375 21.20507812 17.46875 C25.03048963 17.35380806 27.6704853 16.79439009 31 15 C34.26113579 14.43773521 37.52303195 14.05229167 40.80859375 13.66015625 C44.12399774 12.97435053 46.18404034 11.82267583 49 10 C49.66 10 50.32 10 51 10 C51.37125 10.474375 51.7425 10.94875 52.125 11.4375 C55.67195307 14.39329423 60.30124866 14.12728396 64.7109375 13.796875 C66.47512422 13.6047859 68.23728275 13.39254827 69.99609375 13.15625 C70.65738281 13.1046875 71.31867188 13.053125 72 13 C72.495 13.495 72.495 13.495 73 14 C77.61733357 14.59296284 81.62051477 14.66885603 85.5625 12 C86.366875 11.34 87.17125 10.68 88 10 C88.99 12.475 88.99 12.475 90 15 C95.26350522 14.97952931 95.26350522 14.97952931 99.66796875 12.52734375 C100.45107422 11.67849609 100.45107422 11.67849609 101.25 10.8125 C103.66834856 8.47270569 104.60477995 8.01169892 108.03515625 7.91015625 C111.22415184 8.36246909 114.01003683 8.79312564 117 10 C118.35546875 12.1015625 118.35546875 12.1015625 119 14 C121.04159095 14.0272616 123.08328963 14.04651345 125.125 14.0625 C126.83042969 14.07990234 126.83042969 14.07990234 128.5703125 14.09765625 C132.00492816 14.07866216 132.00492816 14.07866216 135.3671875 13.43359375 C136.23601562 13.29050781 137.10484375 13.14742187 138 13 C138.33 13.33 138.66 13.66 139 14 C144.53550307 14.48323069 144.53550307 14.48323069 149.5 12.5 C149.995 12.005 150.49 11.51 151 11 C153 12 155 13 157 14 C159.12318064 14.0972886 161.24959691 14.12977619 163.375 14.125 C164.51710937 14.12757813 165.65921875 14.13015625 166.8359375 14.1328125 C169.43236152 14.0238268 171.53624883 13.76461243 174 13 C174 13.99 174 14.98 174 16 C166.78855634 18.40381455 161.20474939 18.92084435 154 16 C150.67916228 16.26792471 150.67916228 16.26792471 148 18 C143.40290636 18.31052762 138.79378597 18.27848016 134.1875 18.3125 C132.24133789 18.35600586 132.24133789 18.35600586 130.25585938 18.40039062 C129.00998047 18.40876953 127.76410156 18.41714844 126.48046875 18.42578125 C125.33473389 18.44036377 124.18899902 18.45494629 123.00854492 18.4699707 C119.37186071 17.90187713 118.33082337 16.75654757 116 14 C112.46757505 12.53830692 108.76442652 12.67548047 105 13 C102.98079663 14.30406884 100.98075027 15.63823419 99 17 C94.35318953 18.12164391 92.13214012 18.20380806 88 16 C85.64934822 16.28566879 85.64934822 16.28566879 83 17 C78.66770879 17.71021167 75.03419691 18.12323963 70.6875 17.5 C67.06611326 16.73305735 67.06611326 16.73305735 64 18 C61.87890625 18.203125 61.87890625 18.203125 59.5625 18.25 C58.80066406 18.27578125 58.03882812 18.3015625 57.25390625 18.328125 C55 18 55 18 53.06640625 16.40625 C51.04361404 14.69738313 51.04361404 14.69738313 48.3359375 15.328125 C47.35882813 15.63234375 46.38171875 15.9365625 45.375 16.25 C39.89200593 17.81945653 34.68147936 18.63548031 29 19 C29 19.66 29 20.32 29 21 C24.32269335 23.33865333 17.52609861 22.72115376 12.60546875 21.31640625 C7.86949747 19.1340562 4.88319638 16.32479457 2 12 C2 10.68 2 9.36 2 8 C1.34 8 0.68 8 0 8 C-0.33 10.31 -0.66 12.62 -1 15 C-1.66 15 -2.32 15 -3 15 C-3.309375 16.11375 -3.309375 16.11375 -3.625 17.25 C-5.76753716 21.53507432 -9.26690637 23.01635227 -13.3125 25.3125 C-18.48815063 26.63650365 -23.34302221 25.84539683 -28.0625 23.4375 C-28.701875 22.963125 -29.34125 22.48875 -30 22 C-29.505 20.515 -29.505 20.515 -29 19 C-28.360625 19.33 -27.72125 19.66 -27.0625 20 C-21.65063377 21.76713999 -16.82757668 21.40268639 -11.3125 20.1875 C-4.63870835 15.7802791 -1.69136306 7.61113376 0 0 Z " fill="#4D281A" transform="translate(30,117)"/>
<path d="M0 0 C2.64 0 5.28 0 8 0 C5.45182013 19.66595289 5.45182013 19.66595289 -2 26 C-5.34737107 28.23158072 -6.8635808 28.09699239 -10.76953125 27.77734375 C-14.26436132 26.55935569 -16.89916746 25.04044541 -19 22 C-19.73140057 18.36761336 -19.56810427 14.87381093 -19.375 11.1875 C-19.33439453 9.71893555 -19.33439453 9.71893555 -19.29296875 8.22070312 C-19.22245648 5.81153379 -19.12398568 3.40691181 -19 1 C-18.01 1 -17.02 1 -16 1 C-15.90203125 1.80824219 -15.8040625 2.61648437 -15.703125 3.44921875 C-14.8093404 11.65789107 -14.8093404 11.65789107 -10 18 C-7.33071879 18.41870553 -7.33071879 18.41870553 -5 18 C-2.58137942 12.06338584 -1.0992895 6.31121503 0 0 Z " fill="#F83296" transform="translate(19,107)"/>
<path d="M0 0 C0.33 0 0.66 0 1 0 C1 7.92 1 15.84 1 24 C-2.96485531 25.98242766 -4.76066657 26.32169351 -9.0625 26.375 C-10.10535156 26.40335938 -11.14820313 26.43171875 -12.22265625 26.4609375 C-15 26 -15 26 -16.83984375 24.1796875 C-18.60684355 20.8598697 -18.49619738 18.72148032 -18 15 C-16.82881959 11.82027349 -15.49442365 9.32199805 -13 7 C-10.64209789 6.44618669 -8.5073037 6.37604531 -6.08984375 6.33984375 C-3.57280733 6.16760704 -3.57280733 6.16760704 -1.5 2.9375 C-1.005 1.968125 -0.51 0.99875 0 0 Z " fill="#F82E96" transform="translate(203,101)"/>
<path d="M0 0 C1.07765625 0.03609375 2.1553125 0.0721875 3.265625 0.109375 C4.49539062 0.17898437 4.49539062 0.17898437 5.75 0.25 C5.61693868 3.67106487 5.40913929 7.08362066 5.1875 10.5 C5.15076172 11.46808594 5.11402344 12.43617187 5.07617188 13.43359375 C4.56933841 20.43272249 4.56933841 20.43272249 2.19702148 22.79907227 C-1.19111909 24.79337723 -4.34673976 26.03065205 -8.25 25.25 C-10.95236878 21.19644682 -10.61747676 18.07094744 -10.625 13.3125 C-10.64949219 12.50103516 -10.67398438 11.68957031 -10.69921875 10.85351562 C-10.71764452 7.11001417 -10.66762719 4.9024176 -8.6171875 1.69921875 C-5.55320454 -0.176586 -3.56711192 -0.15509182 0 0 Z " fill="#F6F2EF" transform="translate(98.25,93.75)"/>
<path d="M0 0 C2.83203125 0.35546875 2.83203125 0.35546875 4.70703125 1.35546875 C6.55315747 4.63747091 6.50781978 7.76001131 5.83203125 11.35546875 C4.67939979 14.31778728 3.39631111 16.44104064 0.83203125 18.35546875 C-2.25583833 18.92863518 -5.06763506 18.78100475 -8.16796875 18.35546875 C-7.83796875 17.69546875 -7.50796875 17.03546875 -7.16796875 16.35546875 C-6.50796875 16.35546875 -5.84796875 16.35546875 -5.16796875 16.35546875 C-5.16796875 15.03546875 -5.16796875 13.71546875 -5.16796875 12.35546875 C-5.97234375 13.15984375 -6.77671875 13.96421875 -7.60546875 14.79296875 C-11.16796875 18.35546875 -11.16796875 18.35546875 -14.984375 18.453125 C-16.56643557 18.44644964 -18.14848034 18.4344875 -19.73046875 18.41796875 C-20.53677734 18.41345703 -21.34308594 18.40894531 -22.17382812 18.40429688 C-24.17190631 18.39247393 -26.16994658 18.37453789 -28.16796875 18.35546875 C-28.16796875 18.02546875 -28.16796875 17.69546875 -28.16796875 17.35546875 C-24.86796875 17.35546875 -21.56796875 17.35546875 -18.16796875 17.35546875 C-17.83796875 16.69546875 -17.50796875 16.03546875 -17.16796875 15.35546875 C-16.06116039 14.24866039 -14.94980073 13.14615393 -13.8203125 12.0625 C-12.50134317 10.69987684 -11.25939757 9.26284079 -10.046875 7.8046875 C-9.28246094 6.89332031 -8.51804688 5.98195313 -7.73046875 5.04296875 C-7.00988281 4.15996094 -6.28929687 3.27695313 -5.546875 2.3671875 C-3.16796875 0.35546875 -3.16796875 0.35546875 0 0 Z " fill="#FEAB12" transform="translate(198.16796875,89.64453125)"/>
<path d="M0 0 C2.97 0.495 2.97 0.495 6 1 C6.40211401 4.53734672 6.70917282 8.07690842 7 11.625 C7.17208984 13.12353516 7.17208984 13.12353516 7.34765625 14.65234375 C7.87620427 21.90786653 7.87620427 21.90786653 5.35546875 25.04980469 C1.662125 27.96370901 -0.18710971 29 -5 29 C-4.7100934 18.65033426 -3.2698033 9.87024346 0 0 Z " fill="#FEF6F0" transform="translate(73,91)"/>
<path d="M0 0 C0.61875 0.72960938 1.2375 1.45921875 1.875 2.2109375 C3.95063583 4.32310485 3.95063583 4.32310485 7.234375 4.171875 C8.39453125 4.03265625 9.5546875 3.8934375 10.75 3.75 C11.92046875 3.62109375 13.0909375 3.4921875 14.296875 3.359375 C15.18890625 3.24078125 16.0809375 3.1221875 17 3 C17 3.66 17 4.32 17 5 C15.7625 5.268125 14.525 5.53625 13.25 5.8125 C9.86074962 6.64484241 7.68944114 7.72431903 5 10 C4.34 10 3.68 10 3 10 C2.05875428 8.55451551 1.11888177 7.10810982 0.1875 5.65625 C-3.52006404 0.48517383 -8.8133826 -2.80288496 -15 -4 C-29.02080663 -5.31129846 -40.96041821 -3.40281261 -52.25 5.6875 C-54.57458768 7.73354981 -56.81085742 9.81085742 -59 12 C-59.27035988 9.07610802 -59.41207413 7.54329326 -57.6015625 5.15625 C-40.64032953 -9.05632466 -18.58487121 -13.21169416 0 0 Z " fill="#512D1C" transform="translate(59,63)"/>
<path d="M0 0 C0.66 0 1.32 0 2 0 C2.34611328 1.08667969 2.34611328 1.08667969 2.69921875 2.1953125 C5.76788105 11.63136696 5.76788105 11.63136696 13 18 C15.37123246 18.23029956 17.74741943 18.41119942 20.125 18.5625 C21.40632813 18.64628906 22.68765625 18.73007813 24.0078125 18.81640625 C24.99523438 18.87699219 25.98265625 18.93757813 27 19 C24.25637988 21.74362012 22.57800386 21.33130133 18.75 21.375 C13.31130879 21.28505472 10.0772012 20.86811396 6 17 C2 12.78947368 2 12.78947368 2 8 C1.34 8 0.68 8 0 8 C-0.33 10.31 -0.66 12.62 -1 15 C-1.66 15 -2.32 15 -3 15 C-3.309375 16.11375 -3.309375 16.11375 -3.625 17.25 C-5.76753716 21.53507432 -9.26690637 23.01635227 -13.3125 25.3125 C-18.48815063 26.63650365 -23.34302221 25.84539683 -28.0625 23.4375 C-28.701875 22.963125 -29.34125 22.48875 -30 22 C-29.505 20.515 -29.505 20.515 -29 19 C-28.360625 19.33 -27.72125 19.66 -27.0625 20 C-21.65063377 21.76713999 -16.82757668 21.40268639 -11.3125 20.1875 C-4.63870835 15.7802791 -1.69136306 7.61113376 0 0 Z " fill="#47210E" transform="translate(30,117)"/>
<path d="M0 0 C0.33 0.33 0.66 0.66 1 1 C0.9140625 2.8203125 0.9140625 2.8203125 0.625 5.125 C0.52445313 5.93195313 0.42390625 6.73890625 0.3203125 7.5703125 C0.21460938 8.37210938 0.10890625 9.17390625 0 10 C-0.08507812 10.69867188 -0.17015625 11.39734375 -0.2578125 12.1171875 C-0.86904762 16.86904762 -0.86904762 16.86904762 -2 18 C-4.01964199 18.07244053 -6.04167124 18.08377188 -8.0625 18.0625 C-9.16722656 18.05347656 -10.27195312 18.04445313 -11.41015625 18.03515625 C-12.69212891 18.01775391 -12.69212891 18.01775391 -14 18 C-14.27373909 11.13696995 -12.18160004 6.90880005 -8.125 1.5 C-5.29181625 -0.49989441 -3.39047573 -0.37671953 0 0 Z " fill="#FEAE12" transform="translate(129,90)"/>
<path d="M0 0 C0.37125 0.474375 0.7425 0.94875 1.125 1.4375 C4.67195307 4.39329423 9.30124866 4.12728396 13.7109375 3.796875 C15.47512422 3.6047859 17.23728275 3.39254827 18.99609375 3.15625 C19.65738281 3.1046875 20.31867188 3.053125 21 3 C21.495 3.495 21.495 3.495 22 4 C23.84891946 4.23363881 25.70488031 4.41303635 27.5625 4.5625 C29.08037109 4.68818359 29.08037109 4.68818359 30.62890625 4.81640625 C31.80259766 4.90728516 31.80259766 4.90728516 33 5 C32.67 5.66 32.34 6.32 32 7 C27.68882082 7.83198195 24.03120427 8.11938005 19.6875 7.5 C16.06611326 6.73305735 16.06611326 6.73305735 13 8 C10.87890625 8.203125 10.87890625 8.203125 8.5625 8.25 C7.80066406 8.27578125 7.03882813 8.3015625 6.25390625 8.328125 C4 8 4 8 2.06640625 6.40625 C0.04361404 4.69738313 0.04361404 4.69738313 -2.6640625 5.328125 C-3.64117187 5.63234375 -4.61828125 5.9365625 -5.625 6.25 C-11.10799407 7.81945653 -16.31852064 8.63548031 -22 9 C-22 9.66 -22 10.32 -22 11 C-24.76452033 12.38226016 -27.0461363 12.09525387 -30.125 12.0625 C-31.22070312 12.05347656 -32.31640625 12.04445312 -33.4453125 12.03515625 C-34.28835937 12.02355469 -35.13140625 12.01195312 -36 12 C-36 11.67 -36 11.34 -36 11 C-32.7 10.67 -29.4 10.34 -26 10 C-29.96 9.67 -33.92 9.34 -38 9 C-38 8.67 -38 8.34 -38 8 C-36.55367187 7.92652344 -36.55367187 7.92652344 -35.078125 7.8515625 C-33.81484375 7.77679688 -32.5515625 7.70203125 -31.25 7.625 C-29.99703125 7.55539063 -28.7440625 7.48578125 -27.453125 7.4140625 C-24.25579219 7.03067191 -22.75996023 6.44358641 -20 5 C-16.73886421 4.43773521 -13.47696805 4.05229167 -10.19140625 3.66015625 C-6.50571634 2.89775528 -3.60581137 0 0 0 Z " fill="#66483A" transform="translate(81,127)"/>
<path d="M0 0 C3.5 0.125 3.5 0.125 4.5 1.125 C5.44446157 7.26400023 2.46383886 11.96500514 -0.5 17.125 C-1.5 18.125 -1.5 18.125 -3.78515625 18.22265625 C-5.15994141 18.20525391 -5.15994141 18.20525391 -6.5625 18.1875 C-7.48160156 18.17847656 -8.40070313 18.16945313 -9.34765625 18.16015625 C-10.05792969 18.14855469 -10.76820313 18.13695313 -11.5 18.125 C-7.2274863 0.25812451 -7.2274863 0.25812451 0 0 Z " fill="#FEAD0D" transform="translate(141.5,89.875)"/>
<path d="M0 0 C2.05078125 0.03255208 4.1015625 0.06510417 6.15234375 0.09765625 C5.66583953 4.8816144 5.02290187 8.65508072 3.15234375 13.09765625 C2.77641309 15.09008875 2.4325483 17.08952365 2.15234375 19.09765625 C1.82234375 18.43765625 1.49234375 17.77765625 1.15234375 17.09765625 C-1.48765625 17.09765625 -4.12765625 17.09765625 -6.84765625 17.09765625 C-6.56280779 15.36735334 -6.26945687 13.63844911 -5.97265625 11.91015625 C-5.81023437 10.94722656 -5.6478125 9.98429687 -5.48046875 8.9921875 C-3.5556515 0.18793084 -3.5556515 0.18793084 0 0 Z " fill="#FEAD14" transform="translate(158.84765625,90.90234375)"/>
<path d="M0 0 C3 1.5 3 1.5 6 3 C8.12318064 3.0972886 10.24959691 3.12977619 12.375 3.125 C13.51710937 3.12757813 14.65921875 3.13015625 15.8359375 3.1328125 C18.43236152 3.0238268 20.53624883 2.76461243 23 2 C23 2.99 23 3.98 23 5 C15.78855634 7.40381455 10.20474939 7.92084435 3 5 C-0.32083772 5.26792471 -0.32083772 5.26792471 -3 7 C-5.07262076 7.08767112 -7.14820294 7.10695873 -9.22265625 7.09765625 C-10.48271484 7.09443359 -11.74277344 7.09121094 -13.04101562 7.08789062 C-14.38151109 7.07953403 -15.72200588 7.07106907 -17.0625 7.0625 C-18.40689942 7.0574866 -19.7513006 7.05292342 -21.09570312 7.04882812 C-24.39717941 7.03699488 -27.69856803 7.02050971 -31 7 C-31.33 6.34 -31.66 5.68 -32 5 C-27.38 5 -22.76 5 -18 5 C-18.33 4.34 -18.66 3.68 -19 3 C-17.0085944 2.61866701 -15.00720923 2.28674418 -13 2 C-12.67 2.33 -12.34 2.66 -12 3 C-6.46449693 3.48323069 -6.46449693 3.48323069 -1.5 1.5 C-1.005 1.005 -0.51 0.51 0 0 Z " fill="#73584B" transform="translate(181,128)"/>
<path d="M0 0 C2 2 2 2 2.3125 5.4375 C2 9 2 9 0.9375 10.9375 C-2.11976176 12.6140629 -4.5906288 12.36528977 -8 12 C-9.9375 10.875 -9.9375 10.875 -11 9 C-11.4375 6 -11.4375 6 -11 3 C-7.93288389 -0.68053933 -4.54351244 -0.4206956 0 0 Z " fill="#FFB110" transform="translate(168,74)"/>
<path d="M0 0 C5.62239746 1.46671238 5.62239746 1.46671238 7.18310547 3.67089844 C8.25047282 6.71413948 8.22462127 9.2916606 8.1953125 12.515625 C8.18564453 14.39121094 8.18564453 14.39121094 8.17578125 16.3046875 C8.15902344 17.60664062 8.14226562 18.90859375 8.125 20.25 C8.11597656 21.56742188 8.10695312 22.88484375 8.09765625 24.2421875 C8.07408533 27.49497462 8.04118022 30.74739589 8 34 C5.69 33.67 3.38 33.34 1 33 C1.2165625 32.14019531 1.433125 31.28039062 1.65625 30.39453125 C5.07080565 16.18252915 5.07080565 16.18252915 3 2 C2.01 1.67 1.02 1.34 0 1 C0 0.67 0 0.34 0 0 Z " fill="#4C2916" transform="translate(196,52)"/>
<path d="M0 0 C2 1.125 2 1.125 3 3 C2.77669287 6.64734979 2.61627165 8.38372835 0 11 C-1.875 11.265625 -1.875 11.265625 -4 11.25 C-4.70125 11.25515625 -5.4025 11.2603125 -6.125 11.265625 C-8 11 -8 11 -10 9 C-10.3267107 5.92891945 -10.48138276 3.84949899 -8.9375 1.125 C-5.8930714 -0.64273274 -3.4368988 -0.36823916 0 0 Z " fill="#FFAE03" transform="translate(76,74)"/>
<path d="M0 0 C0.66 0 1.32 0 2 0 C2.68444144 6.0230847 0.87606653 10.10545592 -1.5546875 15.578125 C-3.17548438 19.41547113 -4.51847469 23.29324168 -5.8125 27.25 C-6.03123779 27.91837891 -6.24997559 28.58675781 -6.4753418 29.27539062 C-6.98720298 30.84908054 -7.49416062 32.42436415 -8 34 C-8.33 34 -8.66 34 -9 34 C-9.80309862 22.75661931 -6.73542853 10.69089649 -1 1 C-0.67 0.67 -0.34 0.34 0 0 Z " fill="#FFF7E6" transform="translate(187,64)"/>
<path d="M0 0 C1.51866365 3.03732731 0.23541877 4.89652633 -0.8125 8.0625 C-2.51060778 13.35072492 -3.89356951 18.56005011 -5 24 C-5.66 24 -6.32 24 -7 24 C-8.33333333 18.66666667 -9.66666667 13.33333333 -11 8 C-10.37351563 7.59007813 -9.74703125 7.18015625 -9.1015625 6.7578125 C-8.28429688 6.21898438 -7.46703125 5.68015625 -6.625 5.125 C-5.40683594 4.32449219 -5.40683594 4.32449219 -4.1640625 3.5078125 C-1.92405904 2.04134945 -1.92405904 2.04134945 0 0 Z " fill="#512E1C" transform="translate(58,93)"/>
<path d="M0 0 C0.99 0.33 1.98 0.66 3 1 C2.01 2.485 2.01 2.485 1 4 C0.80067906 8.18573976 0.66191912 11.98575735 2 16 C1.01 16.66 0.02 17.32 -1 18 C-1.639375 17.34 -2.27875 16.68 -2.9375 16 C-6.9701604 13.36642586 -10.29266614 13.27579479 -15 14 C-16.04994141 14.54527344 -16.04994141 14.54527344 -17.12109375 15.1015625 C-17.74113281 15.39804688 -18.36117187 15.69453125 -19 16 C-21.5 14.75 -21.5 14.75 -24 13 C-25.32556035 12.31800881 -26.6576905 11.64840374 -28 11 C-27.07316406 11.01160156 -26.14632812 11.02320312 -25.19140625 11.03515625 C-23.39509766 11.04869141 -23.39509766 11.04869141 -21.5625 11.0625 C-19.77005859 11.07990234 -19.77005859 11.07990234 -17.94140625 11.09765625 C-15.11126659 11.33901792 -15.11126659 11.33901792 -14 10 C-12.0390625 10.0859375 -12.0390625 10.0859375 -9.625 10.375 C-8.43777344 10.51035156 -8.43777344 10.51035156 -7.2265625 10.6484375 C-5 11 -5 11 -2 12 C-2.04125 10.7625 -2.0825 9.525 -2.125 8.25 C-2.13658291 4.98362038 -1.8568702 2.7853053 0 0 Z " fill="#53301F" transform="translate(152,72)"/>
<path d="M0 0 C0.33 0 0.66 0 1 0 C1.10864945 2.06132142 1.18588321 4.12431321 1.25 6.1875 C1.29640625 7.33605469 1.3428125 8.48460938 1.390625 9.66796875 C0.92260455 13.66018315 -0.14297232 15.22460168 -3 18 C-6.25 18.8125 -6.25 18.8125 -9 19 C-9.59567545 13.47951483 -7.75364464 10.40568568 -4.5625 6.125 C-4.14162109 5.53203125 -3.72074219 4.9390625 -3.28710938 4.328125 C-2.22852572 2.85796402 -1.11851165 1.42509802 0 0 Z " fill="#FEF2F6" transform="translate(203,101)"/>
<path d="M0 0 C0.33 0.66 0.66 1.32 1 2 C1.66 2 2.32 2 3 2 C3 2.66 3 3.32 3 4 C2.34 4 1.68 4 1 4 C0.79375 4.7425 0.5875 5.485 0.375 6.25 C-1.76753716 10.53507432 -5.26690637 12.01635227 -9.3125 14.3125 C-14.48815063 15.63650365 -19.34302221 14.84539683 -24.0625 12.4375 C-24.701875 11.963125 -25.34125 11.48875 -26 11 C-25.67 10.01 -25.34 9.02 -25 8 C-24.360625 8.33 -23.72125 8.66 -23.0625 9 C-17.55631126 10.79793918 -12.73317836 10.48301692 -7.1875 8.9375 C-3.08315929 6.44270467 -2.02514986 4.29331771 0 0 Z " fill="#604131" transform="translate(26,128)"/>
<path d="M0 0 C2.5 0.8125 2.5 0.8125 5 3 C6.16869277 9.77387946 4.71791283 16.45045733 3 23 C2.34 23 1.68 23 1 23 C-2.17547361 15.85518438 -1.72006681 7.49949129 0 0 Z " fill="#4B2513" transform="translate(9,98)"/>
<path d="M0 0 C0 0.33 0 0.66 0 1 C-0.84820312 1.01417969 -1.69640625 1.02835938 -2.5703125 1.04296875 C-18.427876 1.68772683 -29.72185779 6.72185779 -41 18 C-41.27035988 15.07610802 -41.41207413 13.54329326 -39.6015625 11.15625 C-27.03289481 0.62440198 -15.87423936 -1.52954911 0 0 Z " fill="#5F3F30" transform="translate(41,57)"/>
<path d="M0 0 C0.66 0.33 1.32 0.66 2 1 C3.01805604 4.05416813 3.13375515 6.17936961 3.125 9.375 C3.12757812 10.31085938 3.13015625 11.24671875 3.1328125 12.2109375 C3.00441441 14.90729747 2.60188709 17.37271509 2 20 C6.8426524 22.00792904 9.88714655 21.88152646 15 21 C17.67415589 20.91070481 20.32332858 20.95304085 23 21 C20.99786885 23.70876567 19.98194024 24.00295523 16.5625 24.5625 C14.7990625 24.7790625 14.7990625 24.7790625 13 25 C12.29875 25.4125 11.5975 25.825 10.875 26.25 C10.25625 26.4975 9.6375 26.745 9 27 C6.6875 25.75 6.6875 25.75 4 24 C1.68308546 23.27833809 -0.64848923 22.59940471 -3 22 C-2.34 19.36 -1.68 16.72 -1 14 C-0.34 14 0.32 14 1 14 C1.14975239 6.94348748 1.14975239 6.94348748 0 0 Z " fill="#604132" transform="translate(108,61)"/>
<path d="M0 0 C0.66 0.99 1.32 1.98 2 3 C-4.85882288 5.95870791 -11.61394333 7.04296522 -19 8 C-19 8.66 -19 9.32 -19 10 C-21.76452033 11.38226016 -24.0461363 11.09525387 -27.125 11.0625 C-28.22070312 11.05347656 -29.31640625 11.04445312 -30.4453125 11.03515625 C-31.28835937 11.02355469 -32.13140625 11.01195312 -33 11 C-33 10.67 -33 10.34 -33 10 C-29.7 9.67 -26.4 9.34 -23 9 C-26.96 8.67 -30.92 8.34 -35 8 C-35 7.67 -35 7.34 -35 7 C-33.55367187 6.92652344 -33.55367187 6.92652344 -32.078125 6.8515625 C-30.81484375 6.77679688 -29.5515625 6.70203125 -28.25 6.625 C-26.99703125 6.55539063 -25.7440625 6.48578125 -24.453125 6.4140625 C-21.25449192 6.030516 -19.76018179 5.44633526 -17 4 C-13.70753719 3.4013704 -10.41252092 2.98876415 -7.09375 2.5625 C-4.31769336 2.05776243 -2.40958654 1.41740385 0 0 Z " fill="#755A4E" transform="translate(78,128)"/>
<path d="M0 0 C1.32 0 2.64 0 4 0 C3.65532373 7.23820173 1.89785009 11.91590189 -2 18 C-2.99 18 -3.98 18 -5 18 C-4.56699236 11.18012971 -3.09212176 6.08356979 0 0 Z " fill="#FFF6E4" transform="translate(93,69)"/>
<path d="M0 0 C2.625 1.625 2.625 1.625 3.625 3.625 C2.32175781 3.46451172 2.32175781 3.46451172 0.9921875 3.30078125 C-7.64733231 2.21138967 -7.64733231 2.21138967 -15.375 5.625 C-16.7053125 6.73875 -16.7053125 6.73875 -18.0625 7.875 C-18.825625 8.4525 -19.58875 9.03 -20.375 9.625 C-21.365 9.295 -22.355 8.965 -23.375 8.625 C-18.02127249 0.47802336 -9.31683054 -3.79574578 0 0 Z " fill="#502C1B" transform="translate(196.375,49.375)"/>
<path d="M0 0 C2 1 4 2 6 3 C8.12318064 3.0972886 10.24959691 3.12977619 12.375 3.125 C13.51710937 3.12757813 14.65921875 3.13015625 15.8359375 3.1328125 C18.43236152 3.0238268 20.53624883 2.76461243 23 2 C23 2.99 23 3.98 23 5 C13.42051905 8.19316032 7.07293313 7.16462504 -2 3 C-1.34 2.01 -0.68 1.02 0 0 Z " fill="#553224" transform="translate(181,128)"/>
<path d="M0 0 C7.38461538 -0.36923077 7.38461538 -0.36923077 10.5 1.5 C10.995 1.995 11.49 2.49 12 3 C11.6875 4.9375 11.6875 4.9375 11 7 C10.01 7.33 9.02 7.66 8 8 C8 6.35 8 4.7 8 3 C6.68 3 5.36 3 4 3 C4 4.65 4 6.3 4 8 C4.66 8 5.32 8 6 8 C6 8.66 6 9.32 6 10 C4.68 10 3.36 10 2 10 C1.34 6.7 0.68 3.4 0 0 Z " fill="#4B2714" transform="translate(33,76)"/>
<path d="M0 0 C1.32 0 2.64 0 4 0 C3.67 4.62 3.34 9.24 3 14 C1.68 14.33 0.36 14.66 -1 15 C-1.02685412 12.68756208 -1.04632841 10.3750373 -1.0625 8.0625 C-1.07410156 6.77472656 -1.08570312 5.48695312 -1.09765625 4.16015625 C-1 1 -1 1 0 0 Z " fill="#441E0B" transform="translate(94,99)"/>
<path d="M0 0 C5.89428563 0.35365714 8.94782213 1.66511204 13 6 C15.24194505 11.29914284 15.2306412 16.34929061 15 22 C14.34 22.33 13.68 22.66 13 23 C12.96132812 21.91332031 12.96132812 21.91332031 12.921875 20.8046875 C12.56860104 14.78297228 12.12289274 10.69551673 8 6 C5.43415478 3.74706274 2.84091885 1.8939459 0 0 Z " fill="#3E1403" transform="translate(95,53)"/>
<path d="M0 0 C0.66 0 1.32 0 2 0 C2.66 1.98 3.32 3.96 4 6 C4.66 6 5.32 6 6 6 C6.66 4.02 7.32 2.04 8 0 C9.3805087 3.76668598 8.59568159 6.44789173 7.5625 10.25 C7.27503906 11.32765625 6.98757812 12.4053125 6.69140625 13.515625 C6.34916016 14.74539062 6.34916016 14.74539062 6 16 C5.34 16 4.68 16 4 16 C2.66666667 10.66666667 1.33333333 5.33333333 0 0 Z " fill="#46200F" transform="translate(47,101)"/>
<path d="M0 0 C0.66 0 1.32 0 2 0 C2.515625 0.639375 3.03125 1.27875 3.5625 1.9375 C6.65902567 4.55763711 8.83066145 4.58745403 12.78125 4.82421875 C14.95605058 4.99651809 16.90290124 5.41376557 19 6 C14.68356258 8.43165819 10.87070704 8.84122747 6 8 C3.36053466 6.60231978 2.05754193 5.26857188 0 3 C0 2.01 0 1.02 0 0 Z " fill="#512C1E" transform="translate(79,127)"/>
<path d="M0 0 C0.33 0 0.66 0 1 0 C1.33 3.3 1.66 6.6 2 10 C0.23086176 10.22226864 -1.54044371 10.42733873 -3.3125 10.625 C-4.79169922 10.79902344 -4.79169922 10.79902344 -6.30078125 10.9765625 C-9 11 -9 11 -12 9 C-11.67 8.34 -11.34 7.68 -11 7 C-8.36 7 -5.72 7 -3 7 C-2.01 4.69 -1.02 2.38 0 0 Z " fill="#FFE5B5" transform="translate(79,77)"/>
<path d="M0 0 C-1.98 0.99 -1.98 0.99 -4 2 C-2.68 2.66 -1.36 3.32 0 4 C-1.76949612 4.50471197 -3.54065223 5.00360685 -5.3125 5.5 C-6.79169922 5.91765625 -6.79169922 5.91765625 -8.30078125 6.34375 C-11 7 -11 7 -14 7 C-12.94633868 3.94438218 -12.02789701 3.01775264 -9.25 1.25 C-5.89227838 -0.04143139 -3.55958794 -0.25425628 0 0 Z " fill="#765C4E" transform="translate(167,65)"/>
<path d="M0 0 C0.67417969 0.31710938 1.34835938 0.63421875 2.04296875 0.9609375 C5.53224473 2.18702391 8.62440058 2.41819069 12.3125 2.625 C14.19388672 2.73714844 14.19388672 2.73714844 16.11328125 2.8515625 C17.06589844 2.90054688 18.01851562 2.94953125 19 3 C16.23159238 5.76840762 14.48286854 5.29949595 10.625 5.3125 C9.48289062 5.32925781 8.34078125 5.34601563 7.1640625 5.36328125 C3.77838792 4.97455565 2.37379571 4.40302965 0 2 C0 1.34 0 0.68 0 0 Z " fill="#451D0E" transform="translate(38,133)"/>
<path d="M0 0 C0.66 0.33 1.32 0.66 2 1 C1.06027344 1.83144531 1.06027344 1.83144531 0.1015625 2.6796875 C-0.71570312 3.40414062 -1.53296875 4.12859375 -2.375 4.875 C-3.59316406 5.95394531 -3.59316406 5.95394531 -4.8359375 7.0546875 C-6.25795079 8.33295938 -7.64794586 9.64794586 -9 11 C-9.375 8.8125 -9.375 8.8125 -9 6 C-6.08883306 3.15352566 -3.87472029 1.29157343 0 0 Z " fill="#52301D" transform="translate(9,64)"/>
<path d="M0 0 C0.33 0 0.66 0 1 0 C1.02705729 1.77074917 1.04642195 3.54161711 1.0625 5.3125 C1.07410156 6.29863281 1.08570313 7.28476563 1.09765625 8.30078125 C1 11 1 11 0 14 C-0.66 14 -1.32 14 -2 14 C-2.33 11.03 -2.66 8.06 -3 5 C-2.01 5 -1.02 5 0 5 C0 3.35 0 1.7 0 0 Z " fill="#461F0D" transform="translate(12,107)"/>
<path d="M0 0 C1.5 1.375 1.5 1.375 3 3 C3 3.66 3 4.32 3 5 C5.31 5 7.62 5 10 5 C10 5.33 10 5.66 10 6 C4.20858017 7.01603857 0.5415502 6.96263236 -5 5 C-3.35 3.35 -1.7 1.7 0 0 Z " fill="#614333" transform="translate(117,127)"/>
<path d="M0 0 C0.33 0.66 0.66 1.32 1 2 C1.99 2.33 2.98 2.66 4 3 C0.7 6.96 -2.6 10.92 -6 15 C-6 11.21286807 -4.73107406 9.16645599 -3 5.8125 C-2.443125 4.72582031 -1.88625 3.63914062 -1.3125 2.51953125 C-0.879375 1.68808594 -0.44625 0.85664062 0 0 Z " fill="#FFF1D3" transform="translate(188,91)"/>
<path d="M0 0 C0.66 0.33 1.32 0.66 2 1 C3.01805604 4.05416813 3.13375515 6.17936961 3.125 9.375 C3.12757812 10.31085938 3.13015625 11.24671875 3.1328125 12.2109375 C3.00441441 14.90729747 2.60188709 17.37271509 2 20 C0.68 19.34 -0.64 18.68 -2 18 C-1.34 16.68 -0.68 15.36 0 14 C0.33 14 0.66 14 1 14 C1.14975239 6.94348748 1.14975239 6.94348748 0 0 Z " fill="#826B60" transform="translate(108,61)"/>
<path d="M0 0 C0.66 0 1.32 0 2 0 C2 4 2 4 0.1875 6 C-0.534375 6.66 -1.25625 7.32 -2 8 C-3.02323436 9.31558703 -4.03126968 10.64377755 -5 12 C-6 9 -6 9 -5.0390625 6.9921875 C-4.57242188 6.29351562 -4.10578125 5.59484375 -3.625 4.875 C-3.16351563 4.17117187 -2.70203125 3.46734375 -2.2265625 2.7421875 C-1 1 -1 1 0 0 Z " fill="#FEE9E1" transform="translate(191,102)"/>
<path d="M0 0 C6.14689273 0.36881356 8.69027374 1.90050429 13 6 C12.67 6.66 12.34 7.32 12 8 C8.84563477 6.15995362 5.89680405 4.22088311 3 2 C2.01 1.34 1.02 0.68 0 0 Z " fill="#4D2919" transform="translate(95,53)"/>
<path d="M0 0 C2.9375 0.8125 2.9375 0.8125 6 2 C7.14229879 5.42689636 6.90861076 7.61102218 6.5625 11.1875 C6.46066406 12.27417969 6.35882813 13.36085938 6.25390625 14.48046875 C6.12822266 15.72763672 6.12822266 15.72763672 6 17 C5.67 17 5.34 17 5 17 C4.93941406 16.25234375 4.87882813 15.5046875 4.81640625 14.734375 C4.73261719 13.74953125 4.64882812 12.7646875 4.5625 11.75 C4.48128906 10.77546875 4.40007812 9.8009375 4.31640625 8.796875 C3.95400388 5.32575254 3.95400388 5.32575254 3 2 C2.01 1.67 1.02 1.34 0 1 C0 0.67 0 0.34 0 0 Z " fill="#624534" transform="translate(196,52)"/>
<path d="M0 0 C0.66 0 1.32 0 2 0 C2 2.97 2 5.94 2 9 C1.01 9 0.02 9 -1 9 C-1.33 9.99 -1.66 10.98 -2 12 C-2 9.69 -2 7.38 -2 5 C-1.67 5 -1.34 5 -1 5 C-0.67 3.35 -0.34 1.7 0 0 Z " fill="#705646" transform="translate(10,103)"/>
<path d="M0 0 C1.5625 1.6875 1.5625 1.6875 3 4 C2.74454157 7.40611234 1.6483487 10.03297233 0 13 C-0.33 13 -0.66 13 -1 13 C-1.07654536 8.48382401 -1.10228696 4.40914783 0 0 Z " fill="#FDCDBC" transform="translate(112,100)"/>
<path d="M0 0 C0.99 0.33 1.98 0.66 3 1 C2.01 2.485 2.01 2.485 1 4 C0.54605448 6.27912938 0.54605448 6.27912938 0.375 8.6875 C0.30023438 9.49574219 0.22546875 10.30398437 0.1484375 11.13671875 C0.09945312 11.75160156 0.05046875 12.36648437 0 13 C-0.66 12.67 -1.32 12.34 -2 12 C-2.28571429 3.42857143 -2.28571429 3.42857143 0 0 Z " fill="#421909" transform="translate(152,72)"/>
<path d="M0 0 C2.45 9.1 2.45 9.1 1 12 C0.01 12 -0.98 12 -2 12 C-1.85831863 10.56208484 -1.71148957 9.1246763 -1.5625 7.6875 C-1.48128906 6.88699219 -1.40007812 6.08648437 -1.31640625 5.26171875 C-1 3 -1 3 0 0 Z " fill="#FFE4B3" transform="translate(90,75)"/>
<path d="M0 0 C1.32 0 2.64 0 4 0 C4.33 1.98 4.66 3.96 5 6 C4.01 6.33 3.02 6.66 2 7 C2 6.34 2 5.68 2 5 C1.34 5 0.68 5 0 5 C0 3.35 0 1.7 0 0 Z " fill="#A6968C" transform="translate(37,79)"/>
<path d="M0 0 C1 2 1 2 0 6 C-3.3 5.34 -6.6 4.68 -10 4 C-9.34 3.34 -8.68 2.68 -8 2 C-4.375 2.375 -4.375 2.375 -1 3 C-0.67 2.01 -0.34 1.02 0 0 Z " fill="#472011" transform="translate(171,64)"/>
<path d="M0 0 C-0.33 0.66 -0.66 1.32 -1 2 C-0.01 2.99 0.98 3.98 2 5 C-0.97 4.67 -3.94 4.34 -7 4 C-7.33 3.01 -7.66 2.02 -8 1 C-5.29120665 -0.35439668 -2.99066732 -0.06501451 0 0 Z " fill="#867164" transform="translate(99,52)"/>
<path d="M0 0 C2.75409836 4.13114754 2.75409836 4.13114754 3 7 C1.5625 10.25 1.5625 10.25 0 13 C-0.33 13 -0.66 13 -1 13 C-0.67 8.71 -0.34 4.42 0 0 Z " fill="#FEE1D5" transform="translate(128,100)"/>
<path d="M0 0 C0 0.66 0 1.32 0 2 C-3.63 2.66 -7.26 3.32 -11 4 C-10.67 3.01 -10.34 2.02 -10 1 C-6.76421296 -0.31828361 -3.44785988 -0.07836045 0 0 Z " fill="#4A2615" transform="translate(76,66)"/>
<path d="M0 0 C1.11375 0.185625 1.11375 0.185625 2.25 0.375 C-2.89285714 5.94642857 -2.89285714 5.94642857 -6.75 6.375 C-3.42692308 0.46730769 -3.42692308 0.46730769 0 0 Z " fill="#5B3C2A" transform="translate(179.75,52.625)"/>
<path d="M0 0 C2.95409701 1.37154504 5.44008376 2.98863724 8 5 C3.82412255 6.39195915 1.86525224 4.82323219 -2 3 C-1.34 2.01 -0.68 1.02 0 0 Z " fill="#47210D" transform="translate(181,128)"/>
<path d="M0 0 C0.33 0 0.66 0 1 0 C1 3.63 1 7.26 1 11 C0.01 11 -0.98 11 -2 11 C-1.125 3.375 -1.125 3.375 0 0 Z " fill="#E5E1DE" transform="translate(203,72)"/>
<path d="M0 0 C0.99 0.33 1.98 0.66 3 1 C3 1.66 3 2.32 3 3 C3.99 3 4.98 3 6 3 C6 3.99 6 4.98 6 6 C3.69 5.67 1.38 5.34 -1 5 C-0.67 3.35 -0.34 1.7 0 0 Z " fill="#533021" transform="translate(198,80)"/>
<path d="M0 0 C1.98 0.99 1.98 0.99 4 2 C3.6875 3.9375 3.6875 3.9375 3 6 C2.01 6.33 1.02 6.66 0 7 C0 4.69 0 2.38 0 0 Z " fill="#5C3C2B" transform="translate(41,77)"/>
<path d="M0 0 C0.86625 0.3403125 0.86625 0.3403125 1.75 0.6875 C-4 5.6875 -4 5.6875 -6.25 5.6875 C-6.25 4.6975 -6.25 3.7075 -6.25 2.6875 C-4.08146295 0.51896295 -3.10906228 -0.43181421 0 0 Z " fill="#4E2B1B" transform="translate(91.25,54.3125)"/>
<path d="M0 0 C4.67692308 1.47692308 4.67692308 1.47692308 6.3125 4.125 C6.539375 4.74375 6.76625 5.3625 7 6 C6.34 6.66 5.68 7.32 5 8 C0 2.25 0 2.25 0 0 Z " fill="#5F4030" transform="translate(32,127)"/>
<path d="M0 0 C0.33 0.66 0.66 1.32 1 2 C0.0625 4.625 0.0625 4.625 -1 7 C-1.66 7 -2.32 7 -3 7 C-3.33 5.35 -3.66 3.7 -4 2 C-2.68 1.34 -1.36 0.68 0 0 Z " fill="#BDB3AD" transform="translate(54,100)"/>
<path d="M0 0 C1.98 0 3.96 0 6 0 C6.66 1.32 7.32 2.64 8 4 C4.87099787 4 3.62581138 3.57548683 1 2 C0.67 1.34 0.34 0.68 0 0 Z " fill="#654938" transform="translate(141,127)"/>
<path d="M0 0 C2 0 2 0 3.5625 1.25 C5.14533111 3.17692483 5.5806825 4.56795851 6 7 C3.53199953 5.84826645 1.95216435 4.95216435 0 3 C0 2.01 0 1.02 0 0 Z " fill="#593729" transform="translate(79,127)"/>
<path d="M0 0 C0.66 0.99 1.32 1.98 2 3 C-0.475 4.485 -0.475 4.485 -3 6 C-3.66 5.34 -4.32 4.68 -5 4 C-3.35 2.68 -1.7 1.36 0 0 Z " fill="#4E2B17" transform="translate(117,127)"/>
<path d="M0 0 C0.66 0 1.32 0 2 0 C2 1.98 2 3.96 2 6 C1.01 6.33 0.02 6.66 -1 7 C-0.67 4.69 -0.34 2.38 0 0 Z " fill="#CAC1BC" transform="translate(74,106)"/>
</svg>
