<?xml version="1.0" encoding="UTF-8"?>
<svg version="1.1" xmlns="http://www.w3.org/2000/svg" width="268" height="188">
<path d="M0 0 C88.44 0 176.88 0 268 0 C268 62.04 268 124.08 268 188 C179.56 188 91.12 188 0 188 C0 125.96 0 63.92 0 0 Z " fill="#151610" transform="translate(0,0)"/>
<path d="M0 0 C17.49 0.33 34.98 0.66 53 1 C53 4.96 53 8.92 53 13 C52.34 13 51.68 13 51 13 C50.9175 12.38125 50.835 11.7625 50.75 11.125 C50.20188915 8.91562311 50.20188915 8.91562311 48.4375 7.90625 C45.08786106 6.66087142 41.78169101 6.53580855 38.25 6.375 C35.8575 6.25125 33.465 6.1275 31 6 C31 11.28 31 16.56 31 22 C33.31 21.67 35.62 21.34 38 21 C53.10272886 19.55600868 67.06258499 24.70091958 80 32 C76.32945994 33.22351335 75.49636832 32.62568639 72 31.1875 C48.20718416 22.19910291 27.0887734 28.98825848 4.94824219 38.92041016 C4.28211914 39.22124512 3.61599609 39.52208008 2.9296875 39.83203125 C-6.21112737 43.94667785 -15.35390937 47.26014797 -25 50 C-25.70125 50.20753906 -26.4025 50.41507813 -27.125 50.62890625 C-29.52904049 51.10470593 -31.80180199 51.09471313 -34.25 51.0625 C-35.14203125 51.05347656 -36.0340625 51.04445312 -36.953125 51.03515625 C-37.62859375 51.02355469 -38.3040625 51.01195312 -39 51 C-38.505 55.455 -38.505 55.455 -38 60 C-35.69 60.66 -33.38 61.32 -31 62 C-31 62.66 -31 63.32 -31 64 C-39.25 64 -47.5 64 -56 64 C-56 63.34 -56 62.68 -56 62 C-53.525 61.505 -53.525 61.505 -51 61 C-50.08307039 58.24921116 -49.89113917 56.64051087 -49.9375 53.8125 C-49.958125 52.554375 -49.97875 51.29625 -50 50 C-50.81082031 49.78085938 -51.62164062 49.56171875 -52.45703125 49.3359375 C-60.16879216 47.12744718 -67.29312127 44.47978541 -74 40 C-74.33 39.34 -74.66 38.68 -75 38 C-71.99476557 38.99727274 -68.99322962 40.00233613 -66 41.03515625 C-65.01 41.37417969 -64.02 41.71320313 -63 42.0625 C-62.01 42.40410156 -61.02 42.74570313 -60 43.09765625 C-38.30033947 49.62450727 -18.51949026 41.57589547 1.08203125 32.65625 C4.87303853 30.94207682 8.67021484 29.2544732 12.51171875 27.65625 C13.66933716 27.17381836 13.66933716 27.17381836 14.8503418 26.68164062 C17 26 17 26 21 26 C21 19.4 21 12.8 21 6 C18.628125 6.12375 16.25625 6.2475 13.8125 6.375 C13.07491455 6.40899902 12.3373291 6.44299805 11.57739258 6.47802734 C7.67977269 6.71067393 4.48194776 7.207821 1 9 C-0.80348078 11.01317219 -0.80348078 11.01317219 -2 13 C-2.18393122 7.57402889 -2.09708587 5.24271468 0 0 Z " fill="#EABF65" transform="translate(131,62)"/>
<path d="M0 0 C4.25001966 -0.09981078 8.49939595 -0.17190512 12.75024414 -0.21972656 C14.19242252 -0.23968751 15.6345216 -0.26686663 17.07641602 -0.30175781 C26.69635575 -0.52850163 34.75460492 -0.32745094 42.5 6.0625 C45.39360221 9.80006952 45.44856544 13.7355766 45.421875 18.29296875 C44.59187061 23.61883022 41.18477821 27.98404556 37.28125 31.5859375 C36.8584375 32.05257812 36.435625 32.51921875 36 33 C36.23043864 35.65466049 36.23043864 35.65466049 37 38 C34.03 38.66 31.06 39.32 28 40 C27.67 39.01 27.34 38.02 27 37 C24.03 37 21.06 37 18 37 C18 38.65 18 40.3 18 42 C14.7 42 11.4 42 8 42 C7.67 29.13 7.34 16.26 7 3 C4.69 2.67 2.38 2.34 0 2 C0 1.34 0 0.68 0 0 Z " fill="#C5972F" transform="translate(74,63)"/>
<path d="M0 0 C0 0.33 0 0.66 0 1 C-3.3 1.33 -6.6 1.66 -10 2 C-9.88604445 5.25073211 -9.75929345 8.50009857 -9.625 11.75 C-9.5940625 12.67039062 -9.563125 13.59078125 -9.53125 14.5390625 C-9.49257812 15.42851563 -9.45390625 16.31796875 -9.4140625 17.234375 C-9.3826416 18.05131836 -9.3512207 18.86826172 -9.31884766 19.70996094 C-8.96749754 22.23344034 -8.4163533 23.88167953 -7 26 C-3.94091587 26.81584568 -3.94091587 26.81584568 -1 27 C-1 27.66 -1 28.32 -1 29 C-9.58 29 -18.16 29 -27 29 C-27 28.34 -27 27.68 -27 27 C-25.35 26.67 -23.7 26.34 -22 26 C-20.85017398 21.90996141 -20.88905744 17.96822949 -20.9375 13.75 C-20.94201172 13.00492188 -20.94652344 12.25984375 -20.95117188 11.4921875 C-20.96290754 9.6614236 -20.9808415 7.83070127 -21 6 C-22.0621875 6.53109375 -23.124375 7.0621875 -24.21875 7.609375 C-32.71875 11.859375 -32.71875 11.859375 -34.8515625 12.91992188 C-36.31098798 13.65361487 -37.76398222 14.4002133 -39.2109375 15.15820312 C-39.91476563 15.52365234 -40.61859375 15.88910156 -41.34375 16.265625 C-42.29024414 16.76497559 -42.29024414 16.76497559 -43.25585938 17.27441406 C-45 18 -45 18 -48 18 C-44.67326924 22.55885327 -41.74592698 25.3287734 -36.1875 26.6875 C-35.465625 26.790625 -34.74375 26.89375 -34 27 C-34 27.66 -34 28.32 -34 29 C-36.37625177 29.10883596 -38.74743976 29.18766696 -41.125 29.25 C-41.79015625 29.28351563 -42.4553125 29.31703125 -43.140625 29.3515625 C-48.28884392 29.45250797 -51.02511172 28.18462859 -55 25 C-55.66 24.34 -56.32 23.68 -57 23 C-59.03060659 22.63105418 -59.03060659 22.63105418 -61.3515625 22.5859375 C-62.20234375 22.54726562 -63.053125 22.50859375 -63.9296875 22.46875 C-64.81914063 22.4378125 -65.70859375 22.406875 -66.625 22.375 C-67.5221875 22.33632812 -68.419375 22.29765625 -69.34375 22.2578125 C-71.5622927 22.16340643 -73.78082403 22.07783252 -76 22 C-76 21.67 -76 21.34 -76 21 C-75.23558594 20.91363281 -74.47117187 20.82726562 -73.68359375 20.73828125 C-60.6808934 19.03275256 -49.79868052 15.15047822 -38.375 8.9375 C-25.37306251 1.90182513 -14.67261747 -0.67806705 0 0 Z " fill="#C6982F" transform="translate(172,97)"/>
<path d="M0 0 C15.84 0 31.68 0 48 0 C48 3.96 48 7.92 48 12 C47.34 12 46.68 12 46 12 C45.9175 11.38125 45.835 10.7625 45.75 10.125 C45.20188915 7.91562311 45.20188915 7.91562311 43.4375 6.90625 C40.08786106 5.66087142 36.78169101 5.53580855 33.25 5.375 C30.8575 5.25125 28.465 5.1275 26 5 C26 10.28 26 15.56 26 21 C29.465 20.505 29.465 20.505 33 20 C48.10272886 18.55600868 62.06258499 23.70091958 75 31 C71.32945994 32.22351335 70.49636832 31.62568639 67 30.1875 C51.4063558 24.29656774 35.91077358 24.82342194 20 29 C18.91733752 25.75201257 18.96563814 23.64103173 19.12109375 20.23828125 C19.16943359 19.12001953 19.21777344 18.00175781 19.26757812 16.84960938 C19.32365234 15.68236328 19.37972656 14.51511719 19.4375 13.3125 C19.48970703 12.13365234 19.54191406 10.95480469 19.59570312 9.74023438 C19.72546032 6.82659556 19.86208146 3.9132639 20 1 C13.4 1 6.8 1 0 1 C0 0.67 0 0.34 0 0 Z " fill="#E5B654" transform="translate(136,63)"/>
<path d="M0 0 C5.61 0 11.22 0 17 0 C17 10.23 17 20.46 17 31 C20.96 31.33 24.92 31.66 29 32 C30 35 30 35 30 39 C28.515 38.505 28.515 38.505 27 38 C27 37.34 27 36.68 27 36 C24.03 36 21.06 36 18 36 C18 37.65 18 39.3 18 41 C14.7 41 11.4 41 8 41 C7.67 28.13 7.34 15.26 7 2 C4.69 1.67 2.38 1.34 0 1 C0 0.67 0 0.34 0 0 Z " fill="#F5EBB8" transform="translate(74,64)"/>
<path d="M0 0 C1.60388082 -0.04739423 3.20816544 -0.08125898 4.8125 -0.109375 C5.70582031 -0.12967773 6.59914063 -0.14998047 7.51953125 -0.17089844 C11.07768924 0.07425024 12.66723573 1.37564019 15 4 C18.22656065 9.10300017 17.60479587 15.19683963 17 21 C15.74975473 24.24356083 14.18327822 26.40836089 11 28 C9.3146804 28.09534254 7.62550734 28.12985758 5.9375 28.125 C4.58978516 28.12886719 4.58978516 28.12886719 3.21484375 28.1328125 C1 28 1 28 0 27 C-0.08758003 25.00035018 -0.10696576 22.9976389 -0.09765625 20.99609375 C-0.09443359 19.78115234 -0.09121094 18.56621094 -0.08789062 17.31445312 C-0.07951172 16.03505859 -0.07113281 14.75566406 -0.0625 13.4375 C-0.05798828 12.15423828 -0.05347656 10.87097656 -0.04882812 9.54882812 C-0.03699545 6.36583978 -0.02051068 3.18294238 0 0 Z " fill="#14150F" transform="translate(92,68)"/>
<path d="M0 0 C3.00523443 0.99727274 6.00677038 2.00233613 9 3.03515625 C9.99 3.37417969 10.98 3.71320313 12 4.0625 C12.99 4.40410156 13.98 4.74570313 15 5.09765625 C21.55404772 7.06899092 28.0811259 7.28172336 34.875 7.5625 C35.84953125 7.60568359 36.8240625 7.64886719 37.828125 7.69335938 C40.21862802 7.79882274 42.60922444 7.90094175 45 8 C45 9.32 45 10.64 45 12 C42.03 12 39.06 12 36 12 C36.495 16.95 36.495 16.95 37 22 C39.31 22.66 41.62 23.32 44 24 C44 24.66 44 25.32 44 26 C35.75 26 27.5 26 19 26 C19 25.34 19 24.68 19 24 C20.65 23.67 22.3 23.34 24 23 C24.91692961 20.24921116 25.10886083 18.64051087 25.0625 15.8125 C25.041875 14.554375 25.02125 13.29625 25 12 C23.78376953 11.67128906 23.78376953 11.67128906 22.54296875 11.3359375 C14.83120784 9.12744718 7.70687873 6.47978541 1 2 C0.67 1.34 0.34 0.68 0 0 Z " fill="#E8DEAE" transform="translate(56,100)"/>
<path d="M0 0 C-0.21337891 1.82519531 -0.21337891 1.82519531 -1 4 C-2.99365234 5.46386719 -2.99365234 5.46386719 -5.5859375 6.796875 C-6.98199219 7.52197266 -6.98199219 7.52197266 -8.40625 8.26171875 C-9.3859375 8.75285156 -10.365625 9.24398437 -11.375 9.75 C-12.34695312 10.25660156 -13.31890625 10.76320313 -14.3203125 11.28515625 C-21.56976499 15 -21.56976499 15 -25 15 C-21.67326924 19.55885327 -18.74592698 22.3287734 -13.1875 23.6875 C-12.465625 23.790625 -11.74375 23.89375 -11 24 C-11 24.66 -11 25.32 -11 26 C-13.37625177 26.10883596 -15.74743976 26.18766696 -18.125 26.25 C-18.79015625 26.28351563 -19.4553125 26.31703125 -20.140625 26.3515625 C-25.28884392 26.45250797 -28.02511172 25.18462859 -32 22 C-32.66 21.34 -33.32 20.68 -34 20 C-36.03060659 19.63105418 -36.03060659 19.63105418 -38.3515625 19.5859375 C-39.20234375 19.54726562 -40.053125 19.50859375 -40.9296875 19.46875 C-41.81914063 19.4378125 -42.70859375 19.406875 -43.625 19.375 C-44.5221875 19.33632812 -45.419375 19.29765625 -46.34375 19.2578125 C-48.5622927 19.16340643 -50.78082403 19.07783252 -53 19 C-53 18.67 -53 18.34 -53 18 C-52.23558594 17.91363281 -51.47117187 17.82726562 -50.68359375 17.73828125 C-34.72324195 15.6448055 -21.73380948 9.69626552 -7.84667969 1.95214844 C-5.10537483 0.53873108 -3.09683381 0 0 0 Z " fill="#D9BF7A" transform="translate(149,100)"/>
<path d="M0 0 C0.99 0 1.98 0 3 0 C3 10.23 3 20.46 3 31 C6.96 31.33 10.92 31.66 15 32 C16 35 16 35 16 39 C14.515 38.505 14.515 38.505 13 38 C13 37.34 13 36.68 13 36 C10.03 36 7.06 36 4 36 C4 37.65 4 39.3 4 41 C0.7 41 -2.6 41 -6 41 C-6 40.67 -6 40.34 -6 40 C-4.02 40 -2.04 40 0 40 C0 26.8 0 13.6 0 0 Z " fill="#E8CE80" transform="translate(88,64)"/>
<path d="M0 0 C0 0.66 0 1.32 0 2 C-0.99 2.66 -1.98 3.32 -3 4 C-2.01 4.33 -1.02 4.66 0 5 C0 5.66 0 6.32 0 7 C-12.11136154 12.11258294 -23.59602932 16.80067966 -37 16 C-37 15.67 -37 15.34 -37 15 C-34.03 15 -31.06 15 -28 15 C-28 13.68 -28 12.36 -28 11 C-28.99 10.67 -29.98 10.34 -31 10 C-29.61941406 9.67128906 -29.61941406 9.67128906 -28.2109375 9.3359375 C-19.98301893 7.27476849 -12.4474234 4.694643 -4.73046875 1.171875 C-2 0 -2 0 0 0 Z " fill="#D5AF54" transform="translate(129,97)"/>
<path d="M0 0 C15.25712706 -1.1862993 28.89834764 3.60825952 42 11 C38.32945994 12.22351335 37.49636832 11.62568639 34 10.1875 C25.5636188 6.96835454 17.19458602 5.85908672 8.21484375 5.34375 C6 5 6 5 4 3 C4.33 2.34 4.66 1.68 5 1 C3.35 1 1.7 1 0 1 C0 0.67 0 0.34 0 0 Z " fill="#C2952F" transform="translate(169,83)"/>
<path d="M0 0 C0 1.32 0 2.64 0 4 C-2.97 4 -5.94 4 -9 4 C-8.91266424 5.60517097 -8.80447776 7.20921662 -8.6875 8.8125 C-8.60048828 10.15248047 -8.60048828 10.15248047 -8.51171875 11.51953125 C-7.93686419 14.30604 -7.1793144 15.24135754 -5 17 C-6.4370809 17.05422947 -7.87475462 17.09289723 -9.3125 17.125 C-10.51326172 17.15980469 -10.51326172 17.15980469 -11.73828125 17.1953125 C-14 17 -14 17 -17 15 C-16.01 15 -15.02 15 -14 15 C-14 10.71 -14 6.42 -14 2 C-14.66 1.67 -15.32 1.34 -16 1 C-10.62915894 0.31798844 -5.41499441 -0.11521265 0 0 Z " fill="#F6F1C7" transform="translate(101,108)"/>
<path d="M0 0 C15.84 0 31.68 0 48 0 C48 3.96 48 7.92 48 12 C47.34 12 46.68 12 46 12 C45.979375 11.401875 45.95875 10.80375 45.9375 10.1875 C44.45139771 6.71992798 41.3591289 6.37964223 38 5 C37.505 3.515 37.505 3.515 37 2 C18.685 1.505 18.685 1.505 0 1 C0 0.67 0 0.34 0 0 Z " fill="#A9862E" transform="translate(136,63)"/>
<path d="M0 0 C-0.20898438 1.82519531 -0.20898438 1.82519531 -1 4 C-3.02539062 5.46386719 -3.02539062 5.46386719 -5.65625 6.796875 C-6.59597656 7.28027344 -7.53570312 7.76367188 -8.50390625 8.26171875 C-9.98697266 8.99841797 -9.98697266 8.99841797 -11.5 9.75 C-12.48871094 10.25660156 -13.47742188 10.76320313 -14.49609375 11.28515625 C-21.79561152 15 -21.79561152 15 -23 15 C-23 13.35 -23 11.7 -23 10 C-20.23116804 8.51706418 -17.4596027 7.03931138 -14.6875 5.5625 C-13.90181641 5.14162109 -13.11613281 4.72074219 -12.30664062 4.28710938 C-11.54931641 3.88427734 -10.79199219 3.48144531 -10.01171875 3.06640625 C-9.31522217 2.69459229 -8.61872559 2.32277832 -7.90112305 1.93969727 C-5.13070982 0.5703226 -3.10707988 0 0 0 Z " fill="#E4BB66" transform="translate(149,100)"/>
<path d="M0 0 C0.33 0.99 0.66 1.98 1 3 C1.66 3 2.32 3 3 3 C3 5.64 3 8.28 3 11 C-1.67920736 9.35595417 -1.67920736 9.35595417 -3.38989258 7.45776367 C-5.47120498 5.57337908 -6.67264217 5.58145496 -9.44921875 5.48828125 C-10.29677734 5.45283203 -11.14433594 5.41738281 -12.01757812 5.38085938 C-13.33918945 5.34702148 -13.33918945 5.34702148 -14.6875 5.3125 C-15.58017578 5.27833984 -16.47285156 5.24417969 -17.39257812 5.20898438 C-19.59492671 5.12654352 -21.79687938 5.05738449 -24 5 C-24 4.67 -24 4.34 -24 4 C-23.01604248 3.87153687 -23.01604248 3.87153687 -22.01220703 3.74047852 C-19.049303 3.35153499 -16.08715747 2.95708727 -13.125 2.5625 C-12.09246094 2.42779297 -11.05992188 2.29308594 -9.99609375 2.15429688 C-9.00996094 2.02216797 -8.02382812 1.89003906 -7.0078125 1.75390625 C-6.09660645 1.63345947 -5.18540039 1.5130127 -4.24658203 1.38891602 C-1.97266576 1.10637049 -1.97266576 1.10637049 0 0 Z " fill="#E7DAA7" transform="translate(120,114)"/>
<path d="M0 0 C-0.33 0.61875 -0.66 1.2375 -1 1.875 C-2.14193235 3.91018344 -2.14193235 3.91018344 -2 6 C-2 6.66 -2 7.32 -2 8 C-9.87746171 12.23632385 -9.87746171 12.23632385 -14.5625 11.25 C-15.366875 10.8375 -16.17125 10.425 -17 10 C-16.67 9.34 -16.34 8.68 -16 8 C-15.01 8 -14.02 8 -13 8 C-13 7.01 -13 6.02 -13 5 C-11.21046815 4.16209211 -9.41830305 3.32980604 -7.625 2.5 C-6.62726563 2.0359375 -5.62953125 1.571875 -4.6015625 1.09375 C-2 0 -2 0 0 0 Z " fill="#DDB55D" transform="translate(142,91)"/>
<path d="M0 0 C1.00289062 0.10183594 2.00578125 0.20367187 3.0390625 0.30859375 C3.80992188 0.39238281 4.58078125 0.47617188 5.375 0.5625 C6.375 3.5625 6.375 3.5625 6.375 7.5625 C5.385 7.2325 4.395 6.9025 3.375 6.5625 C3.375 5.9025 3.375 5.2425 3.375 4.5625 C0.405 4.5625 -2.565 4.5625 -5.625 4.5625 C-5.625 6.2125 -5.625 7.8625 -5.625 9.5625 C-6.615 9.5625 -7.605 9.5625 -8.625 9.5625 C-8.51137738 8.0824159 -8.38377092 6.60339926 -8.25 5.125 C-8.18039063 4.30128906 -8.11078125 3.47757812 -8.0390625 2.62890625 C-7.90242188 1.94699219 -7.76578125 1.26507813 -7.625 0.5625 C-4.89657939 -0.80171031 -3.01546682 -0.31557211 0 0 Z " fill="#E5BC62" transform="translate(97.625,95.4375)"/>
<path d="M0 0 C10.23 0 20.46 0 31 0 C31 0.33 31 0.66 31 1 C27.7 1.33 24.4 1.66 21 2 C21 2.66 21 3.32 21 4 C22.65 4 24.3 4 26 4 C26 4.33 26 4.66 26 5 C23.36 5 20.72 5 18 5 C18 13.91 18 22.82 18 32 C17.67 32 17.34 32 17 32 C17 21.77 17 11.54 17 1 C11.39 1 5.78 1 0 1 C0 0.67 0 0.34 0 0 Z " fill="#9B8A54" transform="translate(74,63)"/>
<path d="M0 0 C-0.33 1.65 -0.66 3.3 -1 5 C-7.48343811 7.63096039 -13.02330843 8.39325819 -20 8 C-20 7.67 -20 7.34 -20 7 C-17.03 7 -14.06 7 -11 7 C-11 5.68 -11 4.36 -11 3 C-11.99 2.67 -12.98 2.34 -14 2 C-4.58997722 -0.29612756 -4.58997722 -0.29612756 0 0 Z " fill="#D6C995" transform="translate(112,105)"/>
<path d="M0 0 C5.75 1.875 5.75 1.875 8 3 C8 3.66 8 4.32 8 5 C6 7 6 7 3.5625 7.875 C0.67869156 9.14106224 -0.3386679 10.37684406 -2 13 C-2.16682272 8.07872966 -2.24828052 4.49656104 0 0 Z " fill="#DBB45C" transform="translate(131,62)"/>
<path d="M0 0 C4.62 0 9.24 0 14 0 C14.33 2.31 14.66 4.62 15 7 C12 7 12 7 9.625 5.5625 C6.99526048 3.99717886 5.00211625 3.42887375 2 3 C2 2.34 2 1.68 2 1 C1.34 0.67 0.68 0.34 0 0 Z " fill="#DDAF47" transform="translate(93,64)"/>
<path d="M0 0 C3.00523443 0.99727274 6.00677038 2.00233613 9 3.03515625 C9.99 3.37417969 10.98 3.71320313 12 4.0625 C12.99 4.40410156 13.98 4.74570313 15 5.09765625 C17.99312198 5.99793122 20.90950217 6.55390136 24 7 C23.01 7.495 23.01 7.495 22 8 C22 8.99 22 9.98 22 11 C14.4012697 9.12092136 7.57903928 6.28652469 1 2 C0.67 1.34 0.34 0.68 0 0 Z " fill="#C3AD71" transform="translate(56,100)"/>
<path d="M0 0 C3.96 0 7.92 0 12 0 C12.33 1.32 12.66 2.64 13 4 C9.04 4.66 5.08 5.32 1 6 C0.67 4.02 0.34 2.04 0 0 Z " fill="#D3A63E" transform="translate(162,84)"/>
<path d="M0 0 C5.28 0 10.56 0 16 0 C15.34 0.66 14.68 1.32 14 2 C14.33 2.66 14.66 3.32 15 4 C9.72 4 4.44 4 -1 4 C-0.01 3.67 0.98 3.34 2 3 C2 2.34 2 1.68 2 1 C1.34 0.67 0.68 0.34 0 0 Z " fill="#F3C76B" transform="translate(137,64)"/>
<path d="M0 0 C0.51949219 0.34933594 1.03898437 0.69867188 1.57421875 1.05859375 C6.87724314 4.54055504 6.87724314 4.54055504 13 6 C13 6.66 13 7.32 13 8 C8.05 8 3.1 8 -2 8 C-1.01 7.67 -0.02 7.34 1 7 C0.67 4.69 0.34 2.38 0 0 Z " fill="#D5B059" transform="translate(125,118)"/>
<path d="M0 0 C-0.1875 2.375 -0.1875 2.375 -1 5 C-3.88909849 6.59660706 -5.69058796 7 -9 7 C-8.67 5.35 -8.34 3.7 -8 2 C-8.99 1.67 -9.98 1.34 -11 1 C-3.57142857 -1.42857143 -3.57142857 -1.42857143 0 0 Z " fill="#D9B96D" transform="translate(120,103)"/>
<path d="M0 0 C0 0.99 0 1.98 0 3 C0.66 3.33 1.32 3.66 2 4 C-3.445 6.475 -3.445 6.475 -9 9 C-9 7.35 -9 5.7 -9 4 C-2.25 0 -2.25 0 0 0 Z " fill="#D1AB56" transform="translate(135,106)"/>
<path d="M0 0 C4.23322844 0.62045463 7.52290295 2.10523559 11.3125 4.0625 C12.38113281 4.61035156 13.44976562 5.15820312 14.55078125 5.72265625 C15.35902344 6.14417969 16.16726562 6.56570312 17 7 C13.28085718 8.23971427 12.25662217 7.5565981 8.6875 6.125 C4.78023121 4.62220431 1.18960787 3.45293058 -3 3 C-2.01 2.67 -1.02 2.34 0 2 C0 1.34 0 0.68 0 0 Z " fill="#A38030" transform="translate(194,87)"/>
<path d="M0 0 C0.90492188 0.02320313 1.80984375 0.04640625 2.7421875 0.0703125 C4.10730469 0.09738281 4.10730469 0.09738281 5.5 0.125 C6.19867188 0.14820313 6.89734375 0.17140625 7.6171875 0.1953125 C7.6171875 1.5153125 7.6171875 2.8353125 7.6171875 4.1953125 C5.99254908 4.24926728 4.36740209 4.28808445 2.7421875 4.3203125 C1.83726562 4.34351562 0.93234375 4.36671875 0 4.390625 C-2.3828125 4.1953125 -2.3828125 4.1953125 -4.3828125 2.1953125 C-2.3828125 0.1953125 -2.3828125 0.1953125 0 0 Z " fill="#DBAB3E" transform="translate(166.3828125,63.8046875)"/>
<path d="M0 0 C1.72880982 -0.05449838 3.45812712 -0.09301688 5.1875 -0.125 C6.15042969 -0.14820312 7.11335937 -0.17140625 8.10546875 -0.1953125 C11.12812778 0.0086456 13.26769985 0.73125368 16 2 C12.51847024 4.32101984 10.13830989 4.69903201 6 5 C5.34 4.34 4.68 3.68 4 3 C4.33 2.34 4.66 1.68 5 1 C3.35 1 1.7 1 0 1 C0 0.67 0 0.34 0 0 Z " fill="#B68C2A" transform="translate(169,83)"/>
<path d="M0 0 C0.33 0.99 0.66 1.98 1 3 C1.66 3 2.32 3 3 3 C3 5.64 3 8.28 3 11 C0.525 10.01 0.525 10.01 -2 9 C-2.33 6.69 -2.66 4.38 -3 2 C-2.01 1.34 -1.02 0.68 0 0 Z " fill="#EBD087" transform="translate(120,114)"/>
<path d="M0 0 C2.16721782 3.25082673 2.27221018 4.29232153 2.25 8.0625 C2.25515625 8.94035156 2.2603125 9.81820312 2.265625 10.72265625 C2 13 2 13 0 15 C-1 14 -1 14 -1.1328125 11.34765625 C-1.13023438 10.26355469 -1.12765625 9.17945312 -1.125 8.0625 C-1.12757812 6.98097656 -1.13015625 5.89945312 -1.1328125 4.78515625 C-1 2 -1 2 0 0 Z " fill="#B38D35" transform="translate(117,71)"/>
<path d="M0 0 C0 2.97 0 5.94 0 9 C-1.32 9.33 -2.64 9.66 -4 10 C-4.33 7.36 -4.66 4.72 -5 2 C-1.125 0 -1.125 0 0 0 Z " fill="#D8A940" transform="translate(108,93)"/>
<path d="M0 0 C0.99 0.99 1.98 1.98 3 3 C2.67 3.66 2.34 4.32 2 5 C1.34 5 0.68 5 0 5 C0 6.65 0 8.3 0 10 C-0.99 10 -1.98 10 -3 10 C-2.88637738 8.5199159 -2.75877092 7.04089926 -2.625 5.5625 C-2.55539063 4.73878906 -2.48578125 3.91507812 -2.4140625 3.06640625 C-2.27742188 2.38449219 -2.14078125 1.70257813 -2 1 C-1.34 0.67 -0.68 0.34 0 0 Z " fill="#D7B561" transform="translate(92,95)"/>
<path d="M0 0 C1.98 0 3.96 0 6 0 C6 1.32 6 2.64 6 4 C3.69 4 1.38 4 -1 4 C-1.33 3.34 -1.66 2.68 -2 2 C-1.34 2 -0.68 2 0 2 C0 1.34 0 0.68 0 0 Z " fill="#F5E9B4" transform="translate(95,108)"/>
<path d="M0 0 C-0.1875 1.875 -0.1875 1.875 -1 4 C-3.5625 5.25 -3.5625 5.25 -6 6 C-6 5.34 -6 4.68 -6 4 C-6.66 3.34 -7.32 2.68 -8 2 C-5.09399739 0.74335022 -3.20395416 0 0 0 Z " fill="#D0A852" transform="translate(149,100)"/>
<path d="M0 0 C1.27875 -0.061875 2.5575 -0.12375 3.875 -0.1875 C4.95394531 -0.23970703 4.95394531 -0.23970703 6.0546875 -0.29296875 C6.69664063 -0.19628906 7.33859375 -0.09960938 8 0 C8.66 0.99 9.32 1.98 10 3 C6.71023192 4.09658936 5.28696233 3.79953138 2 3 C2 2.34 2 1.68 2 1 C1.34 0.67 0.68 0.34 0 0 Z " fill="#EDC266" transform="translate(93,64)"/>
<path d="M0 0 C1.65 0 3.3 0 5 0 C4.625 2.4375 4.625 2.4375 4 5 C3.01 5.495 3.01 5.495 2 6 C1.34 5.67 0.68 5.34 0 5 C0 3.35 0 1.7 0 0 Z " fill="#E4CA7E" transform="translate(107,105)"/>
<path d="M0 0 C0 1.32 0 2.64 0 4 C-2.64 4 -5.28 4 -8 4 C-8 3.34 -8 2.68 -8 2 C-2.25 0 -2.25 0 0 0 Z " fill="#C79D3F" transform="translate(153,122)"/>
<path d="M0 0 C1.98 0 3.96 0 6 0 C5.67 1.32 5.34 2.64 5 4 C5.66 4.33 6.32 4.66 7 5 C5.02 5.33 3.04 5.66 1 6 C1.66 4.35 2.32 2.7 3 1 C2.01 0.67 1.02 0.34 0 0 Z " fill="#D7C385" transform="translate(102,106)"/>
<path d="M0 0 C1.4606285 2.64738916 2 3.89448334 2 7 C0.68 6.67 -0.64 6.34 -2 6 C-1.125 1.125 -1.125 1.125 0 0 Z " fill="#ECC66F" transform="translate(124,118)"/>
<path d="M0 0 C2.31 0 4.62 0 7 0 C6.01 0.495 6.01 0.495 5 1 C5 1.99 5 2.98 5 4 C3.02 3.34 1.04 2.68 -1 2 C-0.67 1.34 -0.34 0.68 0 0 Z " fill="#D7C78F" transform="translate(73,107)"/>
<path d="M0 0 C0.66 0 1.32 0 2 0 C2.33 2.97 2.66 5.94 3 9 C2.01 8.67 1.02 8.34 0 8 C-0.38063221 5.6739143 -0.71269945 3.33944736 -1 1 C-0.67 0.67 -0.34 0.34 0 0 Z " fill="#EEDB9A" transform="translate(118,115)"/>
<path d="M0 0 C1.32 0.33 2.64 0.66 4 1 C3.67 2.65 3.34 4.3 3 6 C2.01 6 1.02 6 0 6 C0 4.02 0 2.04 0 0 Z " fill="#E4BB60" transform="translate(116,102)"/>
<path d="M0 0 C1.32 0.33 2.64 0.66 4 1 C4 1.66 4 2.32 4 3 C5.65 3 7.3 3 9 3 C9 3.33 9 3.66 9 4 C6.03 4 3.06 4 0 4 C0 2.68 0 1.36 0 0 Z " fill="#B5954A" transform="translate(91,64)"/>
</svg>
